G04 #@! TF.FileFunction,Legend,Top*
%FSLAX46Y46*%
G04 Gerber Fmt 4.6, Leading zero omitted, Abs format (unit mm)*
G04 Created by KiCad (PCBNEW 4.0.2+dfsg1-stable) date Fri 04 Aug 2017 18:39:01 BST*
%MOMM*%
G01*
G04 APERTURE LIST*
%ADD10C,0.150000*%
%ADD11C,0.200000*%
%ADD12C,0.500000*%
%ADD13C,0.175000*%
%ADD14C,0.120000*%
%ADD15R,0.800000X0.750000*%
%ADD16R,0.750000X0.800000*%
%ADD17R,1.198880X1.198880*%
%ADD18R,1.727200X2.032000*%
%ADD19O,1.727200X2.032000*%
%ADD20R,0.500000X0.900000*%
%ADD21R,0.450000X1.750000*%
%ADD22R,1.060000X0.650000*%
%ADD23R,2.032000X1.727200*%
%ADD24O,2.032000X1.727200*%
%ADD25R,0.900000X0.500000*%
%ADD26C,1.700000*%
%ADD27C,3.500000*%
%ADD28C,1.200000*%
G04 APERTURE END LIST*
D10*
D11*
X181000000Y-96250000D02*
X181000000Y-96750000D01*
X180750000Y-96500000D02*
X181250000Y-96500000D01*
X180750000Y-97250000D02*
X181250000Y-97250000D01*
D12*
X156000000Y-92800000D02*
G75*
G03X156000000Y-92800000I-200000J0D01*
G01*
D13*
X174800001Y-84116667D02*
X174800001Y-83416667D01*
X174966667Y-83416667D01*
X175066667Y-83450000D01*
X175133334Y-83516667D01*
X175166667Y-83583333D01*
X175200001Y-83716667D01*
X175200001Y-83816667D01*
X175166667Y-83950000D01*
X175133334Y-84016667D01*
X175066667Y-84083333D01*
X174966667Y-84116667D01*
X174800001Y-84116667D01*
X175500001Y-83750000D02*
X175733334Y-83750000D01*
X175833334Y-84116667D02*
X175500001Y-84116667D01*
X175500001Y-83416667D01*
X175833334Y-83416667D01*
X176033334Y-83416667D02*
X176266667Y-84116667D01*
X176500000Y-83416667D01*
X169516667Y-83416667D02*
X169516667Y-83983333D01*
X169550000Y-84050000D01*
X169583333Y-84083333D01*
X169650000Y-84116667D01*
X169783333Y-84116667D01*
X169850000Y-84083333D01*
X169883333Y-84050000D01*
X169916667Y-83983333D01*
X169916667Y-83416667D01*
X170216666Y-84083333D02*
X170316666Y-84116667D01*
X170483333Y-84116667D01*
X170550000Y-84083333D01*
X170583333Y-84050000D01*
X170616666Y-83983333D01*
X170616666Y-83916667D01*
X170583333Y-83850000D01*
X170550000Y-83816667D01*
X170483333Y-83783333D01*
X170350000Y-83750000D01*
X170283333Y-83716667D01*
X170250000Y-83683333D01*
X170216666Y-83616667D01*
X170216666Y-83550000D01*
X170250000Y-83483333D01*
X170283333Y-83450000D01*
X170350000Y-83416667D01*
X170516666Y-83416667D01*
X170616666Y-83450000D01*
X171150000Y-83750000D02*
X171250000Y-83783333D01*
X171283333Y-83816667D01*
X171316667Y-83883333D01*
X171316667Y-83983333D01*
X171283333Y-84050000D01*
X171250000Y-84083333D01*
X171183333Y-84116667D01*
X170916667Y-84116667D01*
X170916667Y-83416667D01*
X171150000Y-83416667D01*
X171216667Y-83450000D01*
X171250000Y-83483333D01*
X171283333Y-83550000D01*
X171283333Y-83616667D01*
X171250000Y-83683333D01*
X171216667Y-83716667D01*
X171150000Y-83750000D01*
X170916667Y-83750000D01*
X163984167Y-96816666D02*
X163650833Y-97050000D01*
X163984167Y-97216666D02*
X163284167Y-97216666D01*
X163284167Y-96950000D01*
X163317500Y-96883333D01*
X163350833Y-96850000D01*
X163417500Y-96816666D01*
X163517500Y-96816666D01*
X163584167Y-96850000D01*
X163617500Y-96883333D01*
X163650833Y-96950000D01*
X163650833Y-97216666D01*
X163984167Y-96583333D02*
X163517500Y-96216666D01*
X163517500Y-96583333D02*
X163984167Y-96216666D01*
X163984167Y-95949999D02*
X163284167Y-95949999D01*
X163284167Y-95783333D01*
X163317500Y-95683333D01*
X163384167Y-95616666D01*
X163450833Y-95583333D01*
X163584167Y-95549999D01*
X163684167Y-95549999D01*
X163817500Y-95583333D01*
X163884167Y-95616666D01*
X163950833Y-95683333D01*
X163984167Y-95783333D01*
X163984167Y-95949999D01*
X164439167Y-97233333D02*
X164439167Y-96833333D01*
X165139167Y-97033333D02*
X164439167Y-97033333D01*
X165139167Y-96666667D02*
X164672500Y-96300000D01*
X164672500Y-96666667D02*
X165139167Y-96300000D01*
X165139167Y-96033333D02*
X164439167Y-96033333D01*
X164439167Y-95866667D01*
X164472500Y-95766667D01*
X164539167Y-95700000D01*
X164605833Y-95666667D01*
X164739167Y-95633333D01*
X164839167Y-95633333D01*
X164972500Y-95666667D01*
X165039167Y-95700000D01*
X165105833Y-95766667D01*
X165139167Y-95866667D01*
X165139167Y-96033333D01*
X166027500Y-97366666D02*
X166027500Y-96833333D01*
X166294167Y-97100000D02*
X165760833Y-97100000D01*
X165594167Y-96166666D02*
X165594167Y-96499999D01*
X165927500Y-96533333D01*
X165894167Y-96499999D01*
X165860833Y-96433333D01*
X165860833Y-96266666D01*
X165894167Y-96199999D01*
X165927500Y-96166666D01*
X165994167Y-96133333D01*
X166160833Y-96133333D01*
X166227500Y-96166666D01*
X166260833Y-96199999D01*
X166294167Y-96266666D01*
X166294167Y-96433333D01*
X166260833Y-96499999D01*
X166227500Y-96533333D01*
X165594167Y-95833332D02*
X166160833Y-95833332D01*
X166227500Y-95799999D01*
X166260833Y-95766666D01*
X166294167Y-95699999D01*
X166294167Y-95566666D01*
X166260833Y-95499999D01*
X166227500Y-95466666D01*
X166160833Y-95433332D01*
X165594167Y-95433332D01*
X167182500Y-97283333D02*
X167182500Y-96750000D01*
X167449167Y-97016667D02*
X166915833Y-97016667D01*
X166749167Y-96083333D02*
X166749167Y-96416666D01*
X167082500Y-96450000D01*
X167049167Y-96416666D01*
X167015833Y-96350000D01*
X167015833Y-96183333D01*
X167049167Y-96116666D01*
X167082500Y-96083333D01*
X167149167Y-96050000D01*
X167315833Y-96050000D01*
X167382500Y-96083333D01*
X167415833Y-96116666D01*
X167449167Y-96183333D01*
X167449167Y-96350000D01*
X167415833Y-96416666D01*
X167382500Y-96450000D01*
X167449167Y-95416666D02*
X167449167Y-95749999D01*
X166749167Y-95749999D01*
X152483335Y-96950000D02*
X152250002Y-96950000D01*
X152250002Y-97316667D02*
X152250002Y-96616667D01*
X152583335Y-96616667D01*
X153116668Y-97283333D02*
X153050002Y-97316667D01*
X152916668Y-97316667D01*
X152850002Y-97283333D01*
X152816668Y-97216667D01*
X152816668Y-96950000D01*
X152850002Y-96883333D01*
X152916668Y-96850000D01*
X153050002Y-96850000D01*
X153116668Y-96883333D01*
X153150002Y-96950000D01*
X153150002Y-97016667D01*
X152816668Y-97083333D01*
X153550002Y-97316667D02*
X153483335Y-97283333D01*
X153450002Y-97216667D01*
X153450002Y-96616667D01*
X153816669Y-97316667D02*
X153816669Y-96850000D01*
X153816669Y-96616667D02*
X153783335Y-96650000D01*
X153816669Y-96683333D01*
X153850002Y-96650000D01*
X153816669Y-96616667D01*
X153816669Y-96683333D01*
X154150002Y-96850000D02*
X154150002Y-97316667D01*
X154150002Y-96916667D02*
X154183335Y-96883333D01*
X154250002Y-96850000D01*
X154350002Y-96850000D01*
X154416668Y-96883333D01*
X154450002Y-96950000D01*
X154450002Y-97316667D01*
X154783335Y-96883333D02*
X154850001Y-96850000D01*
X154983335Y-96850000D01*
X155050001Y-96883333D01*
X155083335Y-96950000D01*
X155383335Y-97283333D02*
X155316668Y-97316667D01*
X155183335Y-97316667D01*
X155116668Y-97283333D01*
X155083335Y-97216667D01*
X155083335Y-96950000D01*
X155116668Y-96883333D01*
X155183335Y-96850000D01*
X155316668Y-96850000D01*
X155383335Y-96883333D01*
X155416668Y-96950000D01*
X155416668Y-97016667D01*
X155083335Y-97050000D01*
X154850001Y-97050000D01*
X154783335Y-97083333D01*
X154750001Y-97150000D01*
X154750001Y-97216667D01*
X154783335Y-97283333D01*
X154850001Y-97316667D01*
X154983335Y-97316667D01*
X155050001Y-97283333D01*
X155083335Y-97216667D01*
X155716668Y-97316667D02*
X155716668Y-96616667D01*
X155983334Y-96616667D01*
X156050001Y-96650000D01*
X156083334Y-96683333D01*
X156116668Y-96750000D01*
X156116668Y-96850000D01*
X156083334Y-96916667D01*
X156050001Y-96950000D01*
X155983334Y-96983333D01*
X155716668Y-96983333D01*
X156716668Y-96850000D02*
X156716668Y-97316667D01*
X156416668Y-96850000D02*
X156416668Y-97216667D01*
X156450001Y-97283333D01*
X156516668Y-97316667D01*
X156616668Y-97316667D01*
X156683334Y-97283333D01*
X156716668Y-97250000D01*
X157050001Y-97316667D02*
X157050001Y-96850000D01*
X157050001Y-96983333D02*
X157083334Y-96916667D01*
X157116667Y-96883333D01*
X157183334Y-96850000D01*
X157250001Y-96850000D01*
X157483334Y-97316667D02*
X157483334Y-96850000D01*
X157483334Y-96983333D02*
X157516667Y-96916667D01*
X157550000Y-96883333D01*
X157616667Y-96850000D01*
X157683334Y-96850000D01*
X158850000Y-97316667D02*
X158616666Y-96983333D01*
X158450000Y-97316667D02*
X158450000Y-96616667D01*
X158716666Y-96616667D01*
X158783333Y-96650000D01*
X158816666Y-96683333D01*
X158850000Y-96750000D01*
X158850000Y-96850000D01*
X158816666Y-96916667D01*
X158783333Y-96950000D01*
X158716666Y-96983333D01*
X158450000Y-96983333D01*
X159416666Y-97283333D02*
X159350000Y-97316667D01*
X159216666Y-97316667D01*
X159150000Y-97283333D01*
X159116666Y-97216667D01*
X159116666Y-96950000D01*
X159150000Y-96883333D01*
X159216666Y-96850000D01*
X159350000Y-96850000D01*
X159416666Y-96883333D01*
X159450000Y-96950000D01*
X159450000Y-97016667D01*
X159116666Y-97083333D01*
X159683333Y-96850000D02*
X159850000Y-97316667D01*
X160016666Y-96850000D01*
X161183332Y-97316667D02*
X160783332Y-97316667D01*
X160983332Y-97316667D02*
X160983332Y-96616667D01*
X160916666Y-96716667D01*
X160849999Y-96783333D01*
X160783332Y-96816667D01*
X161483333Y-97250000D02*
X161516666Y-97283333D01*
X161483333Y-97316667D01*
X161449999Y-97283333D01*
X161483333Y-97250000D01*
X161483333Y-97316667D01*
X162183332Y-97316667D02*
X161783332Y-97316667D01*
X161983332Y-97316667D02*
X161983332Y-96616667D01*
X161916666Y-96716667D01*
X161849999Y-96783333D01*
X161783332Y-96816667D01*
X162449999Y-97116667D02*
X162783333Y-97116667D01*
X162383333Y-97316667D02*
X162616666Y-96616667D01*
X162849999Y-97316667D01*
D10*
X164950000Y-83300000D02*
X164250000Y-83300000D01*
X164250000Y-82100000D02*
X164950000Y-82100000D01*
X161950000Y-83300000D02*
X161250000Y-83300000D01*
X161250000Y-82100000D02*
X161950000Y-82100000D01*
X173300000Y-87750000D02*
X173300000Y-88450000D01*
X172100000Y-88450000D02*
X172100000Y-87750000D01*
X180700000Y-91200000D02*
X180000000Y-91200000D01*
X180000000Y-90000000D02*
X180700000Y-90000000D01*
X169550000Y-97149020D02*
X169550000Y-94449020D01*
X168050000Y-97149020D02*
X168050000Y-94449020D01*
X168950000Y-95649020D02*
X168700000Y-95649020D01*
X168700000Y-95649020D02*
X168850000Y-95799020D01*
X168450000Y-95899020D02*
X169150000Y-95899020D01*
X168800000Y-95549020D02*
X168800000Y-95199020D01*
X168800000Y-95899020D02*
X168450000Y-95549020D01*
X168450000Y-95549020D02*
X169150000Y-95549020D01*
X169150000Y-95549020D02*
X168800000Y-95899020D01*
X171550000Y-97149020D02*
X171550000Y-94449020D01*
X170050000Y-97149020D02*
X170050000Y-94449020D01*
X170950000Y-95649020D02*
X170700000Y-95649020D01*
X170700000Y-95649020D02*
X170850000Y-95799020D01*
X170450000Y-95899020D02*
X171150000Y-95899020D01*
X170800000Y-95549020D02*
X170800000Y-95199020D01*
X170800000Y-95899020D02*
X170450000Y-95549020D01*
X170450000Y-95549020D02*
X171150000Y-95549020D01*
X171150000Y-95549020D02*
X170800000Y-95899020D01*
X173550000Y-97149020D02*
X173550000Y-94449020D01*
X172050000Y-97149020D02*
X172050000Y-94449020D01*
X172950000Y-95649020D02*
X172700000Y-95649020D01*
X172700000Y-95649020D02*
X172850000Y-95799020D01*
X172450000Y-95899020D02*
X173150000Y-95899020D01*
X172800000Y-95549020D02*
X172800000Y-95199020D01*
X172800000Y-95899020D02*
X172450000Y-95549020D01*
X172450000Y-95549020D02*
X173150000Y-95549020D01*
X173150000Y-95549020D02*
X172800000Y-95899020D01*
X174370000Y-80330000D02*
X169290000Y-80330000D01*
X169290000Y-80330000D02*
X169290000Y-82870000D01*
X169290000Y-82870000D02*
X174370000Y-82870000D01*
X177190000Y-83150000D02*
X175640000Y-83150000D01*
X174370000Y-82870000D02*
X174370000Y-80330000D01*
X175640000Y-80050000D02*
X177190000Y-80050000D01*
X177190000Y-80050000D02*
X177190000Y-83150000D01*
X179850000Y-88325000D02*
X180850000Y-88325000D01*
X180850000Y-89675000D02*
X179850000Y-89675000D01*
X180850000Y-87975000D02*
X179850000Y-87975000D01*
X179850000Y-86625000D02*
X180850000Y-86625000D01*
X155675000Y-91875000D02*
X156325000Y-91875000D01*
X155675000Y-86125000D02*
X156325000Y-86125000D01*
X166325000Y-86125000D02*
X165675000Y-86125000D01*
X166325000Y-91875000D02*
X165675000Y-91875000D01*
X155675000Y-91875000D02*
X155675000Y-86125000D01*
X166325000Y-91875000D02*
X166325000Y-86125000D01*
X156325000Y-91875000D02*
X156325000Y-93475000D01*
X175900000Y-86400000D02*
G75*
G03X175900000Y-86400000I-100000J0D01*
G01*
X176350000Y-86650000D02*
X175850000Y-86650000D01*
X176350000Y-89550000D02*
X176350000Y-86650000D01*
X175850000Y-89550000D02*
X176350000Y-89550000D01*
X175850000Y-86650000D02*
X175850000Y-89550000D01*
X182730000Y-87730000D02*
X182730000Y-92810000D01*
X182730000Y-92810000D02*
X185270000Y-92810000D01*
X185270000Y-92810000D02*
X185270000Y-87730000D01*
X185550000Y-84910000D02*
X185550000Y-86460000D01*
X185270000Y-87730000D02*
X182730000Y-87730000D01*
X182450000Y-86460000D02*
X182450000Y-84910000D01*
X182450000Y-84910000D02*
X185550000Y-84910000D01*
X175650000Y-97150980D02*
X175650000Y-94450980D01*
X174150000Y-97150980D02*
X174150000Y-94450980D01*
X175050000Y-95650980D02*
X174800000Y-95650980D01*
X174800000Y-95650980D02*
X174950000Y-95800980D01*
X174550000Y-95900980D02*
X175250000Y-95900980D01*
X174900000Y-95550980D02*
X174900000Y-95200980D01*
X174900000Y-95900980D02*
X174550000Y-95550980D01*
X174550000Y-95550980D02*
X175250000Y-95550980D01*
X175250000Y-95550980D02*
X174900000Y-95900980D01*
X159400000Y-94000000D02*
X160100000Y-94000000D01*
X160100000Y-95200000D02*
X159400000Y-95200000D01*
X161950000Y-81700000D02*
X161250000Y-81700000D01*
X161250000Y-80500000D02*
X161950000Y-80500000D01*
D14*
X170470000Y-89850000D02*
X170470000Y-88850000D01*
X171830000Y-88850000D02*
X171830000Y-89850000D01*
X168870000Y-89850000D02*
X168870000Y-88850000D01*
X170230000Y-88850000D02*
X170230000Y-89850000D01*
X168120000Y-92550000D02*
X168120000Y-91550000D01*
X169480000Y-91550000D02*
X169480000Y-92550000D01*
X170120000Y-92550000D02*
X170120000Y-91550000D01*
X171480000Y-91550000D02*
X171480000Y-92550000D01*
X172120000Y-92550000D02*
X172120000Y-91550000D01*
X173480000Y-91550000D02*
X173480000Y-92550000D01*
X174220000Y-92550000D02*
X174220000Y-91550000D01*
X175580000Y-91550000D02*
X175580000Y-92550000D01*
X175920000Y-92550000D02*
X175920000Y-91550000D01*
X177280000Y-91550000D02*
X177280000Y-92550000D01*
D10*
X148000000Y-95350000D02*
X148000000Y-83350000D01*
X134100000Y-83350000D02*
X152800000Y-83350000D01*
X134100000Y-95350000D02*
X134100000Y-83350000D01*
X152900000Y-95350000D02*
X134100000Y-95350000D01*
X152900000Y-83350000D02*
X152900000Y-95350000D01*
X166933334Y-83057143D02*
X166885715Y-83104762D01*
X166742858Y-83152381D01*
X166647620Y-83152381D01*
X166504762Y-83104762D01*
X166409524Y-83009524D01*
X166361905Y-82914286D01*
X166314286Y-82723810D01*
X166314286Y-82580952D01*
X166361905Y-82390476D01*
X166409524Y-82295238D01*
X166504762Y-82200000D01*
X166647620Y-82152381D01*
X166742858Y-82152381D01*
X166885715Y-82200000D01*
X166933334Y-82247619D01*
X167885715Y-83152381D02*
X167314286Y-83152381D01*
X167600000Y-83152381D02*
X167600000Y-82152381D01*
X167504762Y-82295238D01*
X167409524Y-82390476D01*
X167314286Y-82438095D01*
X159033334Y-83857143D02*
X158985715Y-83904762D01*
X158842858Y-83952381D01*
X158747620Y-83952381D01*
X158604762Y-83904762D01*
X158509524Y-83809524D01*
X158461905Y-83714286D01*
X158414286Y-83523810D01*
X158414286Y-83380952D01*
X158461905Y-83190476D01*
X158509524Y-83095238D01*
X158604762Y-83000000D01*
X158747620Y-82952381D01*
X158842858Y-82952381D01*
X158985715Y-83000000D01*
X159033334Y-83047619D01*
X159414286Y-83047619D02*
X159461905Y-83000000D01*
X159557143Y-82952381D01*
X159795239Y-82952381D01*
X159890477Y-83000000D01*
X159938096Y-83047619D01*
X159985715Y-83142857D01*
X159985715Y-83238095D01*
X159938096Y-83380952D01*
X159366667Y-83952381D01*
X159985715Y-83952381D01*
X172533334Y-86257143D02*
X172485715Y-86304762D01*
X172342858Y-86352381D01*
X172247620Y-86352381D01*
X172104762Y-86304762D01*
X172009524Y-86209524D01*
X171961905Y-86114286D01*
X171914286Y-85923810D01*
X171914286Y-85780952D01*
X171961905Y-85590476D01*
X172009524Y-85495238D01*
X172104762Y-85400000D01*
X172247620Y-85352381D01*
X172342858Y-85352381D01*
X172485715Y-85400000D01*
X172533334Y-85447619D01*
X172866667Y-85352381D02*
X173485715Y-85352381D01*
X173152381Y-85733333D01*
X173295239Y-85733333D01*
X173390477Y-85780952D01*
X173438096Y-85828571D01*
X173485715Y-85923810D01*
X173485715Y-86161905D01*
X173438096Y-86257143D01*
X173390477Y-86304762D01*
X173295239Y-86352381D01*
X173009524Y-86352381D01*
X172914286Y-86304762D01*
X172866667Y-86257143D01*
X180133334Y-86357143D02*
X180085715Y-86404762D01*
X179942858Y-86452381D01*
X179847620Y-86452381D01*
X179704762Y-86404762D01*
X179609524Y-86309524D01*
X179561905Y-86214286D01*
X179514286Y-86023810D01*
X179514286Y-85880952D01*
X179561905Y-85690476D01*
X179609524Y-85595238D01*
X179704762Y-85500000D01*
X179847620Y-85452381D01*
X179942858Y-85452381D01*
X180085715Y-85500000D01*
X180133334Y-85547619D01*
X180990477Y-85785714D02*
X180990477Y-86452381D01*
X180752381Y-85404762D02*
X180514286Y-86119048D01*
X181133334Y-86119048D01*
X176852381Y-97338095D02*
X175852381Y-97338095D01*
X175852381Y-97100000D01*
X175900000Y-96957142D01*
X175995238Y-96861904D01*
X176090476Y-96814285D01*
X176280952Y-96766666D01*
X176423810Y-96766666D01*
X176614286Y-96814285D01*
X176709524Y-96861904D01*
X176804762Y-96957142D01*
X176852381Y-97100000D01*
X176852381Y-97338095D01*
X176852381Y-95814285D02*
X176852381Y-96385714D01*
X176852381Y-96100000D02*
X175852381Y-96100000D01*
X175995238Y-96195238D01*
X176090476Y-96290476D01*
X176138095Y-96385714D01*
X178052381Y-97338095D02*
X177052381Y-97338095D01*
X177052381Y-97100000D01*
X177100000Y-96957142D01*
X177195238Y-96861904D01*
X177290476Y-96814285D01*
X177480952Y-96766666D01*
X177623810Y-96766666D01*
X177814286Y-96814285D01*
X177909524Y-96861904D01*
X178004762Y-96957142D01*
X178052381Y-97100000D01*
X178052381Y-97338095D01*
X177147619Y-96385714D02*
X177100000Y-96338095D01*
X177052381Y-96242857D01*
X177052381Y-96004761D01*
X177100000Y-95909523D01*
X177147619Y-95861904D01*
X177242857Y-95814285D01*
X177338095Y-95814285D01*
X177480952Y-95861904D01*
X178052381Y-96433333D01*
X178052381Y-95814285D01*
X179252381Y-97338095D02*
X178252381Y-97338095D01*
X178252381Y-97100000D01*
X178300000Y-96957142D01*
X178395238Y-96861904D01*
X178490476Y-96814285D01*
X178680952Y-96766666D01*
X178823810Y-96766666D01*
X179014286Y-96814285D01*
X179109524Y-96861904D01*
X179204762Y-96957142D01*
X179252381Y-97100000D01*
X179252381Y-97338095D01*
X178252381Y-96433333D02*
X178252381Y-95814285D01*
X178633333Y-96147619D01*
X178633333Y-96004761D01*
X178680952Y-95909523D01*
X178728571Y-95861904D01*
X178823810Y-95814285D01*
X179061905Y-95814285D01*
X179157143Y-95861904D01*
X179204762Y-95909523D01*
X179252381Y-96004761D01*
X179252381Y-96290476D01*
X179204762Y-96385714D01*
X179157143Y-96433333D01*
X177652381Y-82433333D02*
X178366667Y-82433333D01*
X178509524Y-82480953D01*
X178604762Y-82576191D01*
X178652381Y-82719048D01*
X178652381Y-82814286D01*
X178652381Y-81957143D02*
X177652381Y-81957143D01*
X177652381Y-81576190D01*
X177700000Y-81480952D01*
X177747619Y-81433333D01*
X177842857Y-81385714D01*
X177985714Y-81385714D01*
X178080952Y-81433333D01*
X178128571Y-81480952D01*
X178176190Y-81576190D01*
X178176190Y-81957143D01*
X178652381Y-80433333D02*
X178652381Y-81004762D01*
X178652381Y-80719048D02*
X177652381Y-80719048D01*
X177795238Y-80814286D01*
X177890476Y-80909524D01*
X177938095Y-81004762D01*
X180183334Y-85252381D02*
X179850000Y-84776190D01*
X179611905Y-85252381D02*
X179611905Y-84252381D01*
X179992858Y-84252381D01*
X180088096Y-84300000D01*
X180135715Y-84347619D01*
X180183334Y-84442857D01*
X180183334Y-84585714D01*
X180135715Y-84680952D01*
X180088096Y-84728571D01*
X179992858Y-84776190D01*
X179611905Y-84776190D01*
X181088096Y-84252381D02*
X180611905Y-84252381D01*
X180564286Y-84728571D01*
X180611905Y-84680952D01*
X180707143Y-84633333D01*
X180945239Y-84633333D01*
X181040477Y-84680952D01*
X181088096Y-84728571D01*
X181135715Y-84823810D01*
X181135715Y-85061905D01*
X181088096Y-85157143D01*
X181040477Y-85204762D01*
X180945239Y-85252381D01*
X180707143Y-85252381D01*
X180611905Y-85204762D01*
X180564286Y-85157143D01*
X180183334Y-84052381D02*
X179850000Y-83576190D01*
X179611905Y-84052381D02*
X179611905Y-83052381D01*
X179992858Y-83052381D01*
X180088096Y-83100000D01*
X180135715Y-83147619D01*
X180183334Y-83242857D01*
X180183334Y-83385714D01*
X180135715Y-83480952D01*
X180088096Y-83528571D01*
X179992858Y-83576190D01*
X179611905Y-83576190D01*
X181040477Y-83052381D02*
X180850000Y-83052381D01*
X180754762Y-83100000D01*
X180707143Y-83147619D01*
X180611905Y-83290476D01*
X180564286Y-83480952D01*
X180564286Y-83861905D01*
X180611905Y-83957143D01*
X180659524Y-84004762D01*
X180754762Y-84052381D01*
X180945239Y-84052381D01*
X181040477Y-84004762D01*
X181088096Y-83957143D01*
X181135715Y-83861905D01*
X181135715Y-83623810D01*
X181088096Y-83528571D01*
X181040477Y-83480952D01*
X180945239Y-83433333D01*
X180754762Y-83433333D01*
X180659524Y-83480952D01*
X180611905Y-83528571D01*
X180564286Y-83623810D01*
X166638095Y-85652381D02*
X166638095Y-86461905D01*
X166685714Y-86557143D01*
X166733333Y-86604762D01*
X166828571Y-86652381D01*
X167019048Y-86652381D01*
X167114286Y-86604762D01*
X167161905Y-86557143D01*
X167209524Y-86461905D01*
X167209524Y-85652381D01*
X168209524Y-86652381D02*
X167638095Y-86652381D01*
X167923809Y-86652381D02*
X167923809Y-85652381D01*
X167828571Y-85795238D01*
X167733333Y-85890476D01*
X167638095Y-85938095D01*
X176338095Y-85352381D02*
X176338095Y-86161905D01*
X176385714Y-86257143D01*
X176433333Y-86304762D01*
X176528571Y-86352381D01*
X176719048Y-86352381D01*
X176814286Y-86304762D01*
X176861905Y-86257143D01*
X176909524Y-86161905D01*
X176909524Y-85352381D01*
X177338095Y-85447619D02*
X177385714Y-85400000D01*
X177480952Y-85352381D01*
X177719048Y-85352381D01*
X177814286Y-85400000D01*
X177861905Y-85447619D01*
X177909524Y-85542857D01*
X177909524Y-85638095D01*
X177861905Y-85780952D01*
X177290476Y-86352381D01*
X177909524Y-86352381D01*
X183261905Y-84652381D02*
X183261905Y-83652381D01*
X183642858Y-83652381D01*
X183738096Y-83700000D01*
X183785715Y-83747619D01*
X183833334Y-83842857D01*
X183833334Y-83985714D01*
X183785715Y-84080952D01*
X183738096Y-84128571D01*
X183642858Y-84176190D01*
X183261905Y-84176190D01*
X184214286Y-83747619D02*
X184261905Y-83700000D01*
X184357143Y-83652381D01*
X184595239Y-83652381D01*
X184690477Y-83700000D01*
X184738096Y-83747619D01*
X184785715Y-83842857D01*
X184785715Y-83938095D01*
X184738096Y-84080952D01*
X184166667Y-84652381D01*
X184785715Y-84652381D01*
X180452381Y-97338095D02*
X179452381Y-97338095D01*
X179452381Y-97100000D01*
X179500000Y-96957142D01*
X179595238Y-96861904D01*
X179690476Y-96814285D01*
X179880952Y-96766666D01*
X180023810Y-96766666D01*
X180214286Y-96814285D01*
X180309524Y-96861904D01*
X180404762Y-96957142D01*
X180452381Y-97100000D01*
X180452381Y-97338095D01*
X179785714Y-95909523D02*
X180452381Y-95909523D01*
X179404762Y-96147619D02*
X180119048Y-96385714D01*
X180119048Y-95766666D01*
X157033334Y-94957143D02*
X156985715Y-95004762D01*
X156842858Y-95052381D01*
X156747620Y-95052381D01*
X156604762Y-95004762D01*
X156509524Y-94909524D01*
X156461905Y-94814286D01*
X156414286Y-94623810D01*
X156414286Y-94480952D01*
X156461905Y-94290476D01*
X156509524Y-94195238D01*
X156604762Y-94100000D01*
X156747620Y-94052381D01*
X156842858Y-94052381D01*
X156985715Y-94100000D01*
X157033334Y-94147619D01*
X157938096Y-94052381D02*
X157461905Y-94052381D01*
X157414286Y-94528571D01*
X157461905Y-94480952D01*
X157557143Y-94433333D01*
X157795239Y-94433333D01*
X157890477Y-94480952D01*
X157938096Y-94528571D01*
X157985715Y-94623810D01*
X157985715Y-94861905D01*
X157938096Y-94957143D01*
X157890477Y-95004762D01*
X157795239Y-95052381D01*
X157557143Y-95052381D01*
X157461905Y-95004762D01*
X157414286Y-94957143D01*
X163833334Y-81457143D02*
X163785715Y-81504762D01*
X163642858Y-81552381D01*
X163547620Y-81552381D01*
X163404762Y-81504762D01*
X163309524Y-81409524D01*
X163261905Y-81314286D01*
X163214286Y-81123810D01*
X163214286Y-80980952D01*
X163261905Y-80790476D01*
X163309524Y-80695238D01*
X163404762Y-80600000D01*
X163547620Y-80552381D01*
X163642858Y-80552381D01*
X163785715Y-80600000D01*
X163833334Y-80647619D01*
X164690477Y-80552381D02*
X164500000Y-80552381D01*
X164404762Y-80600000D01*
X164357143Y-80647619D01*
X164261905Y-80790476D01*
X164214286Y-80980952D01*
X164214286Y-81361905D01*
X164261905Y-81457143D01*
X164309524Y-81504762D01*
X164404762Y-81552381D01*
X164595239Y-81552381D01*
X164690477Y-81504762D01*
X164738096Y-81457143D01*
X164785715Y-81361905D01*
X164785715Y-81123810D01*
X164738096Y-81028571D01*
X164690477Y-80980952D01*
X164595239Y-80933333D01*
X164404762Y-80933333D01*
X164309524Y-80980952D01*
X164261905Y-81028571D01*
X164214286Y-81123810D01*
X171652381Y-87366666D02*
X171176190Y-87700000D01*
X171652381Y-87938095D02*
X170652381Y-87938095D01*
X170652381Y-87557142D01*
X170700000Y-87461904D01*
X170747619Y-87414285D01*
X170842857Y-87366666D01*
X170985714Y-87366666D01*
X171080952Y-87414285D01*
X171128571Y-87461904D01*
X171176190Y-87557142D01*
X171176190Y-87938095D01*
X171652381Y-86890476D02*
X171652381Y-86700000D01*
X171604762Y-86604761D01*
X171557143Y-86557142D01*
X171414286Y-86461904D01*
X171223810Y-86414285D01*
X170842857Y-86414285D01*
X170747619Y-86461904D01*
X170700000Y-86509523D01*
X170652381Y-86604761D01*
X170652381Y-86795238D01*
X170700000Y-86890476D01*
X170747619Y-86938095D01*
X170842857Y-86985714D01*
X171080952Y-86985714D01*
X171176190Y-86938095D01*
X171223810Y-86890476D01*
X171271429Y-86795238D01*
X171271429Y-86604761D01*
X171223810Y-86509523D01*
X171176190Y-86461904D01*
X171080952Y-86414285D01*
X170052381Y-87366666D02*
X169576190Y-87700000D01*
X170052381Y-87938095D02*
X169052381Y-87938095D01*
X169052381Y-87557142D01*
X169100000Y-87461904D01*
X169147619Y-87414285D01*
X169242857Y-87366666D01*
X169385714Y-87366666D01*
X169480952Y-87414285D01*
X169528571Y-87461904D01*
X169576190Y-87557142D01*
X169576190Y-87938095D01*
X169052381Y-87033333D02*
X169052381Y-86366666D01*
X170052381Y-86795238D01*
X176902381Y-94766666D02*
X176426190Y-95100000D01*
X176902381Y-95338095D02*
X175902381Y-95338095D01*
X175902381Y-94957142D01*
X175950000Y-94861904D01*
X175997619Y-94814285D01*
X176092857Y-94766666D01*
X176235714Y-94766666D01*
X176330952Y-94814285D01*
X176378571Y-94861904D01*
X176426190Y-94957142D01*
X176426190Y-95338095D01*
X176902381Y-93814285D02*
X176902381Y-94385714D01*
X176902381Y-94100000D02*
X175902381Y-94100000D01*
X176045238Y-94195238D01*
X176140476Y-94290476D01*
X176188095Y-94385714D01*
X178252381Y-94766666D02*
X177776190Y-95100000D01*
X178252381Y-95338095D02*
X177252381Y-95338095D01*
X177252381Y-94957142D01*
X177300000Y-94861904D01*
X177347619Y-94814285D01*
X177442857Y-94766666D01*
X177585714Y-94766666D01*
X177680952Y-94814285D01*
X177728571Y-94861904D01*
X177776190Y-94957142D01*
X177776190Y-95338095D01*
X177347619Y-94385714D02*
X177300000Y-94338095D01*
X177252381Y-94242857D01*
X177252381Y-94004761D01*
X177300000Y-93909523D01*
X177347619Y-93861904D01*
X177442857Y-93814285D01*
X177538095Y-93814285D01*
X177680952Y-93861904D01*
X178252381Y-94433333D01*
X178252381Y-93814285D01*
X179652381Y-94766666D02*
X179176190Y-95100000D01*
X179652381Y-95338095D02*
X178652381Y-95338095D01*
X178652381Y-94957142D01*
X178700000Y-94861904D01*
X178747619Y-94814285D01*
X178842857Y-94766666D01*
X178985714Y-94766666D01*
X179080952Y-94814285D01*
X179128571Y-94861904D01*
X179176190Y-94957142D01*
X179176190Y-95338095D01*
X178652381Y-94433333D02*
X178652381Y-93814285D01*
X179033333Y-94147619D01*
X179033333Y-94004761D01*
X179080952Y-93909523D01*
X179128571Y-93861904D01*
X179223810Y-93814285D01*
X179461905Y-93814285D01*
X179557143Y-93861904D01*
X179604762Y-93909523D01*
X179652381Y-94004761D01*
X179652381Y-94290476D01*
X179604762Y-94385714D01*
X179557143Y-94433333D01*
X181052381Y-94766666D02*
X180576190Y-95100000D01*
X181052381Y-95338095D02*
X180052381Y-95338095D01*
X180052381Y-94957142D01*
X180100000Y-94861904D01*
X180147619Y-94814285D01*
X180242857Y-94766666D01*
X180385714Y-94766666D01*
X180480952Y-94814285D01*
X180528571Y-94861904D01*
X180576190Y-94957142D01*
X180576190Y-95338095D01*
X180385714Y-93909523D02*
X181052381Y-93909523D01*
X180004762Y-94147619D02*
X180719048Y-94385714D01*
X180719048Y-93766666D01*
X182452381Y-94766666D02*
X181976190Y-95100000D01*
X182452381Y-95338095D02*
X181452381Y-95338095D01*
X181452381Y-94957142D01*
X181500000Y-94861904D01*
X181547619Y-94814285D01*
X181642857Y-94766666D01*
X181785714Y-94766666D01*
X181880952Y-94814285D01*
X181928571Y-94861904D01*
X181976190Y-94957142D01*
X181976190Y-95338095D01*
X181880952Y-94195238D02*
X181833333Y-94290476D01*
X181785714Y-94338095D01*
X181690476Y-94385714D01*
X181642857Y-94385714D01*
X181547619Y-94338095D01*
X181500000Y-94290476D01*
X181452381Y-94195238D01*
X181452381Y-94004761D01*
X181500000Y-93909523D01*
X181547619Y-93861904D01*
X181642857Y-93814285D01*
X181690476Y-93814285D01*
X181785714Y-93861904D01*
X181833333Y-93909523D01*
X181880952Y-94004761D01*
X181880952Y-94195238D01*
X181928571Y-94290476D01*
X181976190Y-94338095D01*
X182071429Y-94385714D01*
X182261905Y-94385714D01*
X182357143Y-94338095D01*
X182404762Y-94290476D01*
X182452381Y-94195238D01*
X182452381Y-94004761D01*
X182404762Y-93909523D01*
X182357143Y-93861904D01*
X182261905Y-93814285D01*
X182071429Y-93814285D01*
X181976190Y-93861904D01*
X181928571Y-93909523D01*
X181880952Y-94004761D01*
X141352381Y-90088095D02*
X140352381Y-90088095D01*
X140352381Y-89707142D01*
X140400000Y-89611904D01*
X140447619Y-89564285D01*
X140542857Y-89516666D01*
X140685714Y-89516666D01*
X140780952Y-89564285D01*
X140828571Y-89611904D01*
X140876190Y-89707142D01*
X140876190Y-90088095D01*
X141352381Y-88564285D02*
X141352381Y-89135714D01*
X141352381Y-88850000D02*
X140352381Y-88850000D01*
X140495238Y-88945238D01*
X140590476Y-89040476D01*
X140638095Y-89135714D01*
%LPC*%
D15*
X165350000Y-82700000D03*
X163850000Y-82700000D03*
X162350000Y-82700000D03*
X160850000Y-82700000D03*
D16*
X172700000Y-87350000D03*
X172700000Y-88850000D03*
D15*
X181100000Y-90600000D03*
X179600000Y-90600000D03*
D17*
X168800000Y-94500000D03*
X168800000Y-96598040D03*
X170800000Y-94500000D03*
X170800000Y-96598040D03*
X172800000Y-94500000D03*
X172800000Y-96598040D03*
D18*
X175640000Y-81600000D03*
D19*
X173100000Y-81600000D03*
X170560000Y-81600000D03*
D20*
X181100000Y-89000000D03*
X179600000Y-89000000D03*
X179600000Y-87300000D03*
X181100000Y-87300000D03*
D21*
X156775000Y-92600000D03*
X157425000Y-92600000D03*
X158075000Y-92600000D03*
X158725000Y-92600000D03*
X159375000Y-92600000D03*
X160025000Y-92600000D03*
X160675000Y-92600000D03*
X161325000Y-92600000D03*
X161975000Y-92600000D03*
X162625000Y-92600000D03*
X163275000Y-92600000D03*
X163925000Y-92600000D03*
X164575000Y-92600000D03*
X165225000Y-92600000D03*
X165225000Y-85400000D03*
X164575000Y-85400000D03*
X163925000Y-85400000D03*
X163275000Y-85400000D03*
X162625000Y-85400000D03*
X161975000Y-85400000D03*
X161325000Y-85400000D03*
X160675000Y-85400000D03*
X160025000Y-85400000D03*
X159375000Y-85400000D03*
X158725000Y-85400000D03*
X158075000Y-85400000D03*
X157425000Y-85400000D03*
X156775000Y-85400000D03*
D22*
X175000000Y-87150000D03*
X175000000Y-88100000D03*
X175000000Y-89050000D03*
X177200000Y-89050000D03*
X177200000Y-87150000D03*
D23*
X184000000Y-86460000D03*
D24*
X184000000Y-89000000D03*
X184000000Y-91540000D03*
D17*
X174900000Y-94501960D03*
X174900000Y-96600000D03*
D15*
X159000000Y-94600000D03*
X160500000Y-94600000D03*
X162350000Y-81100000D03*
X160850000Y-81100000D03*
D25*
X171150000Y-88600000D03*
X171150000Y-90100000D03*
X169550000Y-88600000D03*
X169550000Y-90100000D03*
X168800000Y-91300000D03*
X168800000Y-92800000D03*
X170800000Y-91300000D03*
X170800000Y-92800000D03*
X172800000Y-91300000D03*
X172800000Y-92800000D03*
X174900000Y-91300000D03*
X174900000Y-92800000D03*
X176600000Y-91300000D03*
X176600000Y-92800000D03*
D26*
X152900000Y-88350000D03*
X152900000Y-90350000D03*
X152900000Y-92850000D03*
X152900000Y-85850000D03*
D27*
X150800000Y-83500000D03*
X150800000Y-95200000D03*
D28*
X150800000Y-87100000D03*
X150800000Y-91600000D03*
M02*
