M48
;DRILL file {KiCad (2016-07-14 BZR 6980)-product} date Sunday, 23 April 2017 'PMt' 23:45:11
;FORMAT={-:-/ absolute / metric / decimal}
FMAT,2
METRIC,TZ
T1C0.330
T2C0.400
T3C0.850
T4C1.016
T5C1.150
T6C2.000
%
G90
G05
M71
T1
X158.1Y-83.9
X159.6Y-81.1
X159.6Y-82.7
X161.7Y-94.6
X162.3Y-87.
X163.8Y-81.1
X167.2Y-85.
X168.Y-89.2
X173.7Y-89.2
X174.9Y-85.3
X174.9Y-90.3
X176.2Y-96.6
X179.6Y-91.7
T2
X159.3Y-87.4
X160.9Y-87.4
X166.5Y-90.9
X167.3Y-94.5
X167.3Y-96.6
X168.Y-87.4
X173.8Y-87.4
X177.2Y-90.2
T3
X151.963Y-86.499
X151.963Y-91.499
T4
X170.56Y-81.6
X173.1Y-81.6
X175.64Y-81.6
X184.Y-86.46
X184.Y-89.
X184.Y-91.54
T5
X149.263Y-85.499
X149.263Y-92.499
T6
X150.Y-82.
X150.Y-96.
X184.Y-82.
X184.Y-96.
T0
M30
