M48
;DRILL file {KiCad 4.0.2+dfsg1-stable} date Tue 08 Aug 2017 17:46:02 BST
;FORMAT={-:-/ absolute / metric / decimal}
FMAT,2
METRIC,TZ
T1C0.330
T2C0.400
T3C0.950
T4C1.016
T5C2.000
T6C2.500
T7C1.200
T8C1.700
T9C2.000
%
G90
G05
M71
T1
X154.5Y-88.907
X154.5Y-89.793
X158.1Y-83.9
X159.6Y-81.1
X159.6Y-82.7
X161.7Y-94.6
X162.3Y-87.
X163.8Y-81.1
X167.2Y-85.
X168.6Y-89.4
X173.7Y-89.2
X174.9Y-85.3
X174.9Y-90.3
X176.2Y-96.6
X179.6Y-94.
T2
X159.3Y-87.4
X160.9Y-87.4
X166.5Y-90.9
X167.3Y-94.5
X167.3Y-96.6
X168.Y-87.4
X173.8Y-87.4
X177.2Y-90.2
T3
X152.9Y-85.85
X152.9Y-88.35
X152.9Y-90.35
X152.9Y-92.85
T4
X167.86Y-81.6
X170.4Y-81.6
X172.94Y-81.6
X184.Y-88.76
X184.Y-91.3
X184.Y-93.84
T5
X175.95Y-83.5
X178.95Y-81.6
X178.95Y-85.4
T6
X150.8Y-83.5
X150.8Y-95.2
T7
X150.8Y-87.1
X150.8Y-91.6
T8
X183.7Y-81.5
X183.7Y-85.5
T9
X155.Y-82.
X184.Y-96.
T0
M30
