G04 #@! TF.FileFunction,Copper,L2,Bot,Signal*
%FSLAX46Y46*%
G04 Gerber Fmt 4.6, Leading zero omitted, Abs format (unit mm)*
G04 Created by KiCad (PCBNEW 4.0.2+dfsg1-stable) date Tue 08 Aug 2017 17:47:49 BST*
%MOMM*%
G01*
G04 APERTURE LIST*
%ADD10C,0.150000*%
%ADD11C,0.175000*%
%ADD12R,1.727200X2.032000*%
%ADD13O,1.727200X2.032000*%
%ADD14R,2.032000X1.727200*%
%ADD15O,2.032000X1.727200*%
%ADD16C,1.700000*%
%ADD17C,3.500000*%
%ADD18C,2.700000*%
%ADD19C,0.685800*%
%ADD20C,0.800000*%
%ADD21C,0.800000*%
%ADD22C,0.300000*%
%ADD23C,0.500000*%
%ADD24C,0.400000*%
%ADD25C,0.180000*%
G04 APERTURE END LIST*
D10*
D11*
X163216667Y-95705833D02*
X163283333Y-95672500D01*
X163416667Y-95672500D01*
X163483333Y-95705833D01*
X163550000Y-95772500D01*
X163583333Y-95839167D01*
X163583333Y-95972500D01*
X163550000Y-96039167D01*
X163483333Y-96105833D01*
X163416667Y-96139167D01*
X163283333Y-96139167D01*
X163216667Y-96105833D01*
X163350000Y-95439167D02*
X163516667Y-95472500D01*
X163683333Y-95572500D01*
X163783333Y-95739167D01*
X163816667Y-95905833D01*
X163783333Y-96072500D01*
X163683333Y-96239167D01*
X163516667Y-96339167D01*
X163350000Y-96372500D01*
X163183333Y-96339167D01*
X163016667Y-96239167D01*
X162916667Y-96072500D01*
X162883333Y-95905833D01*
X162916667Y-95739167D01*
X163016667Y-95572500D01*
X163183333Y-95472500D01*
X163350000Y-95439167D01*
X162083334Y-95605833D02*
X162050000Y-95572500D01*
X161983334Y-95539167D01*
X161816667Y-95539167D01*
X161750000Y-95572500D01*
X161716667Y-95605833D01*
X161683334Y-95672500D01*
X161683334Y-95739167D01*
X161716667Y-95839167D01*
X162116667Y-96239167D01*
X161683334Y-96239167D01*
X161250000Y-95539167D02*
X161183333Y-95539167D01*
X161116667Y-95572500D01*
X161083333Y-95605833D01*
X161050000Y-95672500D01*
X161016667Y-95805833D01*
X161016667Y-95972500D01*
X161050000Y-96105833D01*
X161083333Y-96172500D01*
X161116667Y-96205833D01*
X161183333Y-96239167D01*
X161250000Y-96239167D01*
X161316667Y-96205833D01*
X161350000Y-96172500D01*
X161383333Y-96105833D01*
X161416667Y-95972500D01*
X161416667Y-95805833D01*
X161383333Y-95672500D01*
X161350000Y-95605833D01*
X161316667Y-95572500D01*
X161250000Y-95539167D01*
X160350000Y-96239167D02*
X160750000Y-96239167D01*
X160550000Y-96239167D02*
X160550000Y-95539167D01*
X160616666Y-95639167D01*
X160683333Y-95705833D01*
X160750000Y-95739167D01*
X160116666Y-95539167D02*
X159649999Y-95539167D01*
X159949999Y-96239167D01*
X158816666Y-96239167D02*
X158683333Y-96239167D01*
X158616666Y-96205833D01*
X158583333Y-96172500D01*
X158516666Y-96072500D01*
X158483333Y-95939167D01*
X158483333Y-95672500D01*
X158516666Y-95605833D01*
X158549999Y-95572500D01*
X158616666Y-95539167D01*
X158749999Y-95539167D01*
X158816666Y-95572500D01*
X158849999Y-95605833D01*
X158883333Y-95672500D01*
X158883333Y-95839167D01*
X158849999Y-95905833D01*
X158816666Y-95939167D01*
X158749999Y-95972500D01*
X158616666Y-95972500D01*
X158549999Y-95939167D01*
X158516666Y-95905833D01*
X158483333Y-95839167D01*
X158083332Y-95839167D02*
X158149999Y-95805833D01*
X158183332Y-95772500D01*
X158216666Y-95705833D01*
X158216666Y-95672500D01*
X158183332Y-95605833D01*
X158149999Y-95572500D01*
X158083332Y-95539167D01*
X157949999Y-95539167D01*
X157883332Y-95572500D01*
X157849999Y-95605833D01*
X157816666Y-95672500D01*
X157816666Y-95705833D01*
X157849999Y-95772500D01*
X157883332Y-95805833D01*
X157949999Y-95839167D01*
X158083332Y-95839167D01*
X158149999Y-95872500D01*
X158183332Y-95905833D01*
X158216666Y-95972500D01*
X158216666Y-96105833D01*
X158183332Y-96172500D01*
X158149999Y-96205833D01*
X158083332Y-96239167D01*
X157949999Y-96239167D01*
X157883332Y-96205833D01*
X157849999Y-96172500D01*
X157816666Y-96105833D01*
X157816666Y-95972500D01*
X157849999Y-95905833D01*
X157883332Y-95872500D01*
X157949999Y-95839167D01*
X157216665Y-95539167D02*
X157349999Y-95539167D01*
X157416665Y-95572500D01*
X157449999Y-95605833D01*
X157516665Y-95705833D01*
X157549999Y-95839167D01*
X157549999Y-96105833D01*
X157516665Y-96172500D01*
X157483332Y-96205833D01*
X157416665Y-96239167D01*
X157283332Y-96239167D01*
X157216665Y-96205833D01*
X157183332Y-96172500D01*
X157149999Y-96105833D01*
X157149999Y-95939167D01*
X157183332Y-95872500D01*
X157216665Y-95839167D01*
X157283332Y-95805833D01*
X157416665Y-95805833D01*
X157483332Y-95839167D01*
X157516665Y-95872500D01*
X157549999Y-95939167D01*
X156849998Y-95972500D02*
X156316665Y-95972500D01*
X156016665Y-96205833D02*
X155916665Y-96239167D01*
X155749998Y-96239167D01*
X155683331Y-96205833D01*
X155649998Y-96172500D01*
X155616665Y-96105833D01*
X155616665Y-96039167D01*
X155649998Y-95972500D01*
X155683331Y-95939167D01*
X155749998Y-95905833D01*
X155883331Y-95872500D01*
X155949998Y-95839167D01*
X155983331Y-95805833D01*
X156016665Y-95739167D01*
X156016665Y-95672500D01*
X155983331Y-95605833D01*
X155949998Y-95572500D01*
X155883331Y-95539167D01*
X155716665Y-95539167D01*
X155616665Y-95572500D01*
X155416664Y-95772500D02*
X155149998Y-95772500D01*
X155316664Y-95539167D02*
X155316664Y-96139167D01*
X155283331Y-96205833D01*
X155216664Y-96239167D01*
X155149998Y-96239167D01*
X154616664Y-95772500D02*
X154616664Y-96239167D01*
X154916664Y-95772500D02*
X154916664Y-96139167D01*
X154883331Y-96205833D01*
X154816664Y-96239167D01*
X154716664Y-96239167D01*
X154649998Y-96205833D01*
X154616664Y-96172500D01*
X153983331Y-96239167D02*
X153983331Y-95539167D01*
X153983331Y-96205833D02*
X154049998Y-96239167D01*
X154183331Y-96239167D01*
X154249998Y-96205833D01*
X154283331Y-96172500D01*
X154316665Y-96105833D01*
X154316665Y-95905833D01*
X154283331Y-95839167D01*
X154249998Y-95805833D01*
X154183331Y-95772500D01*
X154049998Y-95772500D01*
X153983331Y-95805833D01*
X153649998Y-96239167D02*
X153649998Y-95772500D01*
X153649998Y-95539167D02*
X153683332Y-95572500D01*
X153649998Y-95605833D01*
X153616665Y-95572500D01*
X153649998Y-95539167D01*
X153649998Y-95605833D01*
X153216665Y-96239167D02*
X153283332Y-96205833D01*
X153316665Y-96172500D01*
X153349999Y-96105833D01*
X153349999Y-95905833D01*
X153316665Y-95839167D01*
X153283332Y-95805833D01*
X153216665Y-95772500D01*
X153116665Y-95772500D01*
X153049999Y-95805833D01*
X153016665Y-95839167D01*
X152983332Y-95905833D01*
X152983332Y-96105833D01*
X153016665Y-96172500D01*
X153049999Y-96205833D01*
X153116665Y-96239167D01*
X153216665Y-96239167D01*
X164883331Y-97394167D02*
X164883331Y-96694167D01*
X164649998Y-97194167D01*
X164416665Y-96694167D01*
X164416665Y-97394167D01*
X163783331Y-97394167D02*
X163783331Y-97027500D01*
X163816665Y-96960833D01*
X163883331Y-96927500D01*
X164016665Y-96927500D01*
X164083331Y-96960833D01*
X163783331Y-97360833D02*
X163849998Y-97394167D01*
X164016665Y-97394167D01*
X164083331Y-97360833D01*
X164116665Y-97294167D01*
X164116665Y-97227500D01*
X164083331Y-97160833D01*
X164016665Y-97127500D01*
X163849998Y-97127500D01*
X163783331Y-97094167D01*
X163449998Y-96927500D02*
X163449998Y-97394167D01*
X163449998Y-96994167D02*
X163416665Y-96960833D01*
X163349998Y-96927500D01*
X163249998Y-96927500D01*
X163183332Y-96960833D01*
X163149998Y-97027500D01*
X163149998Y-97394167D01*
X162716665Y-97394167D02*
X162783332Y-97360833D01*
X162816665Y-97327500D01*
X162849999Y-97260833D01*
X162849999Y-97060833D01*
X162816665Y-96994167D01*
X162783332Y-96960833D01*
X162716665Y-96927500D01*
X162616665Y-96927500D01*
X162549999Y-96960833D01*
X162516665Y-96994167D01*
X162483332Y-97060833D01*
X162483332Y-97260833D01*
X162516665Y-97327500D01*
X162549999Y-97360833D01*
X162616665Y-97394167D01*
X162716665Y-97394167D01*
X161916666Y-97360833D02*
X161983332Y-97394167D01*
X162116666Y-97394167D01*
X162183332Y-97360833D01*
X162216666Y-97294167D01*
X162216666Y-97027500D01*
X162183332Y-96960833D01*
X162116666Y-96927500D01*
X161983332Y-96927500D01*
X161916666Y-96960833D01*
X161883332Y-97027500D01*
X161883332Y-97094167D01*
X162216666Y-97160833D01*
X162183332Y-96694167D02*
X162149999Y-96727500D01*
X162183332Y-96760833D01*
X162216666Y-96727500D01*
X162183332Y-96694167D01*
X162183332Y-96760833D01*
X161916666Y-96694167D02*
X161883332Y-96727500D01*
X161916666Y-96760833D01*
X161949999Y-96727500D01*
X161916666Y-96694167D01*
X161916666Y-96760833D01*
X161483332Y-97394167D02*
X161549999Y-97360833D01*
X161583332Y-97294167D01*
X161583332Y-96694167D01*
X160149999Y-96927500D02*
X160683332Y-97127500D01*
X160149999Y-97327500D01*
X159449999Y-96727500D02*
X159516665Y-96694167D01*
X159616665Y-96694167D01*
X159716665Y-96727500D01*
X159783332Y-96794167D01*
X159816665Y-96860833D01*
X159849999Y-96994167D01*
X159849999Y-97094167D01*
X159816665Y-97227500D01*
X159783332Y-97294167D01*
X159716665Y-97360833D01*
X159616665Y-97394167D01*
X159549999Y-97394167D01*
X159449999Y-97360833D01*
X159416665Y-97327500D01*
X159416665Y-97094167D01*
X159549999Y-97094167D01*
X159016665Y-97394167D02*
X159083332Y-97360833D01*
X159116665Y-97327500D01*
X159149999Y-97260833D01*
X159149999Y-97060833D01*
X159116665Y-96994167D01*
X159083332Y-96960833D01*
X159016665Y-96927500D01*
X158916665Y-96927500D01*
X158849999Y-96960833D01*
X158816665Y-96994167D01*
X158783332Y-97060833D01*
X158783332Y-97260833D01*
X158816665Y-97327500D01*
X158849999Y-97360833D01*
X158916665Y-97394167D01*
X159016665Y-97394167D01*
X158183332Y-97394167D02*
X158183332Y-96694167D01*
X158183332Y-97360833D02*
X158249999Y-97394167D01*
X158383332Y-97394167D01*
X158449999Y-97360833D01*
X158483332Y-97327500D01*
X158516666Y-97260833D01*
X158516666Y-97060833D01*
X158483332Y-96994167D01*
X158449999Y-96960833D01*
X158383332Y-96927500D01*
X158249999Y-96927500D01*
X158183332Y-96960833D01*
X157916666Y-96927500D02*
X157549999Y-96927500D01*
X157916666Y-97394167D01*
X157549999Y-97394167D01*
X157283332Y-97394167D02*
X157283332Y-96927500D01*
X157283332Y-96694167D02*
X157316666Y-96727500D01*
X157283332Y-96760833D01*
X157249999Y-96727500D01*
X157283332Y-96694167D01*
X157283332Y-96760833D01*
X156849999Y-97394167D02*
X156916666Y-97360833D01*
X156949999Y-97294167D01*
X156949999Y-96694167D01*
X156583332Y-96927500D02*
X156049999Y-97127500D01*
X156583332Y-97327500D01*
X155283332Y-96694167D02*
X154883332Y-96694167D01*
X155083332Y-97394167D02*
X155083332Y-96694167D01*
X154649999Y-97394167D02*
X154649999Y-96927500D01*
X154649999Y-97060833D02*
X154616666Y-96994167D01*
X154583333Y-96960833D01*
X154516666Y-96927500D01*
X154449999Y-96927500D01*
X153916666Y-97394167D02*
X153916666Y-97027500D01*
X153950000Y-96960833D01*
X154016666Y-96927500D01*
X154150000Y-96927500D01*
X154216666Y-96960833D01*
X153916666Y-97360833D02*
X153983333Y-97394167D01*
X154150000Y-97394167D01*
X154216666Y-97360833D01*
X154250000Y-97294167D01*
X154250000Y-97227500D01*
X154216666Y-97160833D01*
X154150000Y-97127500D01*
X153983333Y-97127500D01*
X153916666Y-97094167D01*
X153583333Y-96927500D02*
X153583333Y-97627500D01*
X153583333Y-96960833D02*
X153516667Y-96927500D01*
X153383333Y-96927500D01*
X153316667Y-96960833D01*
X153283333Y-96994167D01*
X153250000Y-97060833D01*
X153250000Y-97260833D01*
X153283333Y-97327500D01*
X153316667Y-97360833D01*
X153383333Y-97394167D01*
X153516667Y-97394167D01*
X153583333Y-97360833D01*
X152950000Y-97394167D02*
X152950000Y-96927500D01*
X152950000Y-96694167D02*
X152983334Y-96727500D01*
X152950000Y-96760833D01*
X152916667Y-96727500D01*
X152950000Y-96694167D01*
X152950000Y-96760833D01*
X152350001Y-97360833D02*
X152416667Y-97394167D01*
X152550001Y-97394167D01*
X152616667Y-97360833D01*
X152650001Y-97294167D01*
X152650001Y-97027500D01*
X152616667Y-96960833D01*
X152550001Y-96927500D01*
X152416667Y-96927500D01*
X152350001Y-96960833D01*
X152316667Y-97027500D01*
X152316667Y-97094167D01*
X152650001Y-97160833D01*
X152016667Y-97394167D02*
X152016667Y-96927500D01*
X152016667Y-97060833D02*
X151983334Y-96994167D01*
X151950001Y-96960833D01*
X151883334Y-96927500D01*
X151816667Y-96927500D01*
D12*
X172940000Y-81600000D03*
D13*
X170400000Y-81600000D03*
X167860000Y-81600000D03*
D14*
X184000000Y-88760000D03*
D15*
X184000000Y-91300000D03*
X184000000Y-93840000D03*
D16*
X152900000Y-88350000D03*
X152900000Y-90350000D03*
X152900000Y-92850000D03*
X152900000Y-85850000D03*
D17*
X150800000Y-83500000D03*
X150800000Y-95200000D03*
D18*
X178950000Y-81600000D03*
X178950000Y-85400000D03*
X175950000Y-83500000D03*
D19*
X173700000Y-89200000D03*
X162300004Y-87000000D03*
X159600000Y-82700000D03*
X161700000Y-94600000D03*
X176200000Y-96600000D03*
X179600000Y-94000000D03*
X158100000Y-83900000D03*
X168600000Y-89399998D03*
X167200000Y-85000000D03*
X159600000Y-81100000D03*
X163800000Y-81100000D03*
D20*
X159300000Y-87400000D03*
X167300000Y-96600000D03*
X167300000Y-94500000D03*
X160900000Y-87400000D03*
D19*
X174900000Y-90299999D03*
X174900000Y-85300000D03*
D20*
X166500002Y-90900000D03*
X177200000Y-90200000D03*
X168000000Y-87400000D03*
X173800000Y-87400000D03*
D19*
X154500000Y-89792900D03*
X154500000Y-88907100D03*
D21*
X179675000Y-91075000D02*
X179600000Y-91150000D01*
X179600000Y-91150000D02*
X179600000Y-94000000D01*
X175950000Y-87350000D02*
X179675000Y-91075000D01*
X175950000Y-83500000D02*
X175950000Y-87350000D01*
D22*
X175950000Y-83500000D02*
X182550000Y-83500000D01*
D23*
X184000000Y-93840000D02*
X185390000Y-93840000D01*
D24*
X167200000Y-87999998D02*
X168257101Y-89057099D01*
X167200000Y-85000000D02*
X167200000Y-87999998D01*
X168257101Y-89057099D02*
X168600000Y-89399998D01*
D21*
X163800000Y-81100000D02*
X159600000Y-81100000D01*
D23*
X178950000Y-85250000D02*
X178950000Y-87017766D01*
X183232234Y-91300000D02*
X184000000Y-91300000D01*
X178950000Y-87017766D02*
X183232234Y-91300000D01*
D22*
X159300000Y-87965685D02*
X159300000Y-87400000D01*
X159300000Y-88600000D02*
X159300000Y-87965685D01*
X167300000Y-96600000D02*
X159300000Y-88600000D01*
X167300000Y-94500000D02*
X160900000Y-88100000D01*
X160900000Y-88100000D02*
X160900000Y-87400000D01*
D23*
X174900000Y-85300000D02*
X174900000Y-90299999D01*
D22*
X177200000Y-90200000D02*
X175300000Y-92100000D01*
X175300000Y-92100000D02*
X167700002Y-92100000D01*
X167700002Y-92100000D02*
X166500002Y-90900000D01*
X173800000Y-87400000D02*
X168000000Y-87400000D01*
X154500000Y-88907100D02*
X154342900Y-88907100D01*
X154342900Y-88907100D02*
X152900000Y-90350000D01*
D25*
G36*
X159316814Y-80416329D02*
X159076741Y-80576741D01*
X158916329Y-80816814D01*
X158860000Y-81100000D01*
X158916329Y-81383186D01*
X159076741Y-81623259D01*
X159316814Y-81783671D01*
X159600000Y-81840000D01*
X163800000Y-81840000D01*
X164083186Y-81783671D01*
X164323259Y-81623259D01*
X164483671Y-81383186D01*
X164540000Y-81100000D01*
X164483671Y-80816814D01*
X164323259Y-80576741D01*
X164083186Y-80416329D01*
X164076505Y-80415000D01*
X167240841Y-80415000D01*
X167008926Y-80569960D01*
X166748019Y-80960436D01*
X166656400Y-81421034D01*
X166656400Y-81778966D01*
X166748019Y-82239564D01*
X167008926Y-82630040D01*
X167399402Y-82890947D01*
X167860000Y-82982566D01*
X168320598Y-82890947D01*
X168711074Y-82630040D01*
X168971981Y-82239564D01*
X169063600Y-81778966D01*
X169063600Y-81421034D01*
X168971981Y-80960436D01*
X168711074Y-80569960D01*
X168479159Y-80415000D01*
X169780841Y-80415000D01*
X169548926Y-80569960D01*
X169288019Y-80960436D01*
X169196400Y-81421034D01*
X169196400Y-81778966D01*
X169288019Y-82239564D01*
X169548926Y-82630040D01*
X169939402Y-82890947D01*
X170400000Y-82982566D01*
X170860598Y-82890947D01*
X171251074Y-82630040D01*
X171511981Y-82239564D01*
X171603600Y-81778966D01*
X171603600Y-81421034D01*
X171511981Y-80960436D01*
X171251074Y-80569960D01*
X171019159Y-80415000D01*
X171780372Y-80415000D01*
X171757052Y-80449130D01*
X171729740Y-80584000D01*
X171729740Y-82616000D01*
X171753448Y-82741996D01*
X171827911Y-82857716D01*
X171941530Y-82935348D01*
X172076400Y-82962660D01*
X173803600Y-82962660D01*
X173929596Y-82938952D01*
X174045316Y-82864489D01*
X174122948Y-82750870D01*
X174150260Y-82616000D01*
X174150260Y-80584000D01*
X174126552Y-80458004D01*
X174098880Y-80415000D01*
X177744961Y-80415000D01*
X177518123Y-80641442D01*
X177260294Y-81262363D01*
X177259707Y-81934687D01*
X177308049Y-82051683D01*
X177237216Y-81980850D01*
X177127563Y-82090503D01*
X176980773Y-81802250D01*
X176252609Y-81537023D01*
X175478376Y-81570643D01*
X174919227Y-81802250D01*
X174772436Y-82090505D01*
X175950000Y-83268069D01*
X175964143Y-83253927D01*
X176196074Y-83485858D01*
X176181931Y-83500000D01*
X176196074Y-83514143D01*
X175964143Y-83746074D01*
X175950000Y-83731931D01*
X175935858Y-83746074D01*
X175703927Y-83514143D01*
X175718069Y-83500000D01*
X174540505Y-82322436D01*
X174252250Y-82469227D01*
X173987023Y-83197391D01*
X174020643Y-83971624D01*
X174252250Y-84530773D01*
X174540503Y-84677563D01*
X174430850Y-84787216D01*
X174438952Y-84795318D01*
X174321403Y-84912663D01*
X174217219Y-85163567D01*
X174216982Y-85435241D01*
X174310000Y-85660363D01*
X174310000Y-86863460D01*
X174219723Y-86773025D01*
X173947841Y-86660129D01*
X173653451Y-86659872D01*
X173381372Y-86772293D01*
X173243425Y-86910000D01*
X168556459Y-86910000D01*
X168419723Y-86773025D01*
X168147841Y-86660129D01*
X167853451Y-86659872D01*
X167740000Y-86706749D01*
X167740000Y-85425867D01*
X167778597Y-85387337D01*
X167882781Y-85136433D01*
X167883018Y-84864759D01*
X167779272Y-84613673D01*
X167587337Y-84421403D01*
X167336433Y-84317219D01*
X167064759Y-84316982D01*
X166813673Y-84420728D01*
X166621403Y-84612663D01*
X166517219Y-84863567D01*
X166516982Y-85135241D01*
X166620728Y-85386327D01*
X166660000Y-85425668D01*
X166660000Y-87999998D01*
X166701105Y-88206647D01*
X166818162Y-88381836D01*
X167875261Y-89438934D01*
X167875263Y-89438937D01*
X167917030Y-89480703D01*
X167916982Y-89535239D01*
X168020728Y-89786325D01*
X168212663Y-89978595D01*
X168463567Y-90082779D01*
X168735241Y-90083016D01*
X168986327Y-89979270D01*
X169178597Y-89787335D01*
X169282781Y-89536431D01*
X169283018Y-89264757D01*
X169179272Y-89013671D01*
X168987337Y-88821401D01*
X168736433Y-88717217D01*
X168680846Y-88717169D01*
X168638939Y-88675261D01*
X168638936Y-88675259D01*
X168103768Y-88140091D01*
X168146549Y-88140128D01*
X168418628Y-88027707D01*
X168556575Y-87890000D01*
X173243541Y-87890000D01*
X173380277Y-88026975D01*
X173652159Y-88139871D01*
X173946549Y-88140128D01*
X174218628Y-88027707D01*
X174310000Y-87936494D01*
X174310000Y-89940124D01*
X174217219Y-90163566D01*
X174216982Y-90435240D01*
X174320728Y-90686326D01*
X174512663Y-90878596D01*
X174763567Y-90982780D01*
X175035241Y-90983017D01*
X175286327Y-90879271D01*
X175478597Y-90687336D01*
X175582781Y-90436432D01*
X175583018Y-90164758D01*
X175490000Y-89939636D01*
X175490000Y-85659875D01*
X175581695Y-85439048D01*
X175647391Y-85462977D01*
X176421624Y-85429357D01*
X176980773Y-85197750D01*
X177127563Y-84909497D01*
X177237216Y-85019150D01*
X177307367Y-84948999D01*
X177260294Y-85062363D01*
X177259707Y-85734687D01*
X177516452Y-86356057D01*
X177991442Y-86831877D01*
X178360000Y-86984916D01*
X178360000Y-87017766D01*
X178404911Y-87243549D01*
X178532807Y-87434959D01*
X182671958Y-91574110D01*
X182709053Y-91760598D01*
X182969960Y-92151074D01*
X183360436Y-92411981D01*
X183499615Y-92439666D01*
X183074365Y-92600396D01*
X182658848Y-92990659D01*
X182438766Y-93450818D01*
X182545790Y-93676000D01*
X183836000Y-93676000D01*
X183836000Y-93656000D01*
X184164000Y-93656000D01*
X184164000Y-93676000D01*
X184184000Y-93676000D01*
X184184000Y-94004000D01*
X184164000Y-94004000D01*
X184164000Y-94024000D01*
X183836000Y-94024000D01*
X183836000Y-94004000D01*
X182545790Y-94004000D01*
X182438766Y-94229182D01*
X182658848Y-94689341D01*
X183049086Y-95055862D01*
X182864666Y-95239960D01*
X182660233Y-95732288D01*
X182659768Y-96265373D01*
X182863341Y-96758057D01*
X183239960Y-97135334D01*
X183732288Y-97339767D01*
X184265373Y-97340232D01*
X184758057Y-97136659D01*
X185135334Y-96760040D01*
X185339767Y-96267712D01*
X185340232Y-95734627D01*
X185136659Y-95241943D01*
X184950908Y-95055867D01*
X185341152Y-94689341D01*
X185561234Y-94229182D01*
X185454211Y-94004002D01*
X185585000Y-94004002D01*
X185585000Y-96959126D01*
X185532958Y-97220759D01*
X185407909Y-97407908D01*
X185220758Y-97532959D01*
X184959126Y-97585000D01*
X165477499Y-97585000D01*
X165477499Y-95470464D01*
X166560041Y-96553006D01*
X166559872Y-96746549D01*
X166672293Y-97018628D01*
X166880277Y-97226975D01*
X167152159Y-97339871D01*
X167446549Y-97340128D01*
X167718628Y-97227707D01*
X167926975Y-97019723D01*
X168039871Y-96747841D01*
X168040128Y-96453451D01*
X167927707Y-96181372D01*
X167719723Y-95973025D01*
X167447841Y-95860129D01*
X167252924Y-95859959D01*
X159790000Y-88397036D01*
X159790000Y-87956459D01*
X159926975Y-87819723D01*
X160039871Y-87547841D01*
X160039872Y-87546549D01*
X160159872Y-87546549D01*
X160272293Y-87818628D01*
X160410000Y-87956575D01*
X160410000Y-88100000D01*
X160447299Y-88287515D01*
X160553518Y-88446482D01*
X166560041Y-94453005D01*
X166559872Y-94646549D01*
X166672293Y-94918628D01*
X166880277Y-95126975D01*
X167152159Y-95239871D01*
X167446549Y-95240128D01*
X167718628Y-95127707D01*
X167926975Y-94919723D01*
X168039871Y-94647841D01*
X168040128Y-94353451D01*
X167927707Y-94081372D01*
X167719723Y-93873025D01*
X167447841Y-93760129D01*
X167252923Y-93759959D01*
X164539513Y-91046549D01*
X165759874Y-91046549D01*
X165872295Y-91318628D01*
X166080279Y-91526975D01*
X166352161Y-91639871D01*
X166547079Y-91640041D01*
X167353519Y-92446482D01*
X167493235Y-92539837D01*
X167512487Y-92552701D01*
X167700002Y-92590000D01*
X175300000Y-92590000D01*
X175487515Y-92552701D01*
X175646482Y-92446482D01*
X177153005Y-90939959D01*
X177346549Y-90940128D01*
X177618628Y-90827707D01*
X177826975Y-90619723D01*
X177939871Y-90347841D01*
X177940128Y-90053451D01*
X177827707Y-89781372D01*
X177619723Y-89573025D01*
X177347841Y-89460129D01*
X177053451Y-89459872D01*
X176781372Y-89572293D01*
X176573025Y-89780277D01*
X176460129Y-90052159D01*
X176459959Y-90247077D01*
X175097036Y-91610000D01*
X167902967Y-91610000D01*
X167239961Y-90946995D01*
X167240130Y-90753451D01*
X167127709Y-90481372D01*
X166919725Y-90273025D01*
X166647843Y-90160129D01*
X166353453Y-90159872D01*
X166081374Y-90272293D01*
X165873027Y-90480277D01*
X165760131Y-90752159D01*
X165759874Y-91046549D01*
X164539513Y-91046549D01*
X161419738Y-87926774D01*
X161526975Y-87819723D01*
X161639871Y-87547841D01*
X161640128Y-87253451D01*
X161527707Y-86981372D01*
X161319723Y-86773025D01*
X161047841Y-86660129D01*
X160753451Y-86659872D01*
X160481372Y-86772293D01*
X160273025Y-86980277D01*
X160160129Y-87252159D01*
X160159872Y-87546549D01*
X160039872Y-87546549D01*
X160040128Y-87253451D01*
X159927707Y-86981372D01*
X159719723Y-86773025D01*
X159447841Y-86660129D01*
X159153451Y-86659872D01*
X158881372Y-86772293D01*
X158673025Y-86980277D01*
X158560129Y-87252159D01*
X158559872Y-87546549D01*
X158672293Y-87818628D01*
X158810000Y-87956575D01*
X158810000Y-88600000D01*
X158847299Y-88787515D01*
X158953518Y-88946482D01*
X164837035Y-94830000D01*
X153138168Y-94830000D01*
X153133317Y-94664395D01*
X152874674Y-94039978D01*
X153135667Y-94040206D01*
X153573200Y-93859421D01*
X153908244Y-93524961D01*
X154089793Y-93087744D01*
X154090206Y-92614333D01*
X153909421Y-92176800D01*
X153574961Y-91841756D01*
X153137744Y-91660207D01*
X152664333Y-91659794D01*
X152226800Y-91840579D01*
X151891756Y-92175039D01*
X151710207Y-92612256D01*
X151709839Y-93033951D01*
X151198087Y-92839330D01*
X150264395Y-92866683D01*
X149528826Y-93171367D01*
X149333107Y-93501176D01*
X150800000Y-94968069D01*
X150814143Y-94953927D01*
X151046074Y-95185858D01*
X151031931Y-95200000D01*
X151046074Y-95214143D01*
X150814143Y-95446074D01*
X150800000Y-95431931D01*
X149333107Y-96898824D01*
X149528826Y-97228633D01*
X150401913Y-97560670D01*
X151322502Y-97533701D01*
X151322502Y-97585000D01*
X149040874Y-97585000D01*
X148779241Y-97532958D01*
X148592092Y-97407909D01*
X148467041Y-97220758D01*
X148415000Y-96959126D01*
X148415000Y-94801913D01*
X148439330Y-94801913D01*
X148466683Y-95735605D01*
X148771367Y-96471174D01*
X149101176Y-96666893D01*
X150568069Y-95200000D01*
X149101176Y-93733107D01*
X148771367Y-93928826D01*
X148439330Y-94801913D01*
X148415000Y-94801913D01*
X148415000Y-91786157D01*
X149859837Y-91786157D01*
X150002642Y-92131772D01*
X150266837Y-92396429D01*
X150612202Y-92539837D01*
X150986157Y-92540163D01*
X151331772Y-92397358D01*
X151596429Y-92133163D01*
X151739837Y-91787798D01*
X151740163Y-91413843D01*
X151597358Y-91068228D01*
X151333163Y-90803571D01*
X150987798Y-90660163D01*
X150613843Y-90659837D01*
X150268228Y-90802642D01*
X150003571Y-91066837D01*
X149860163Y-91412202D01*
X149859837Y-91786157D01*
X148415000Y-91786157D01*
X148415000Y-88585667D01*
X151709794Y-88585667D01*
X151890579Y-89023200D01*
X152217085Y-89350277D01*
X151891756Y-89675039D01*
X151710207Y-90112256D01*
X151709794Y-90585667D01*
X151890579Y-91023200D01*
X152225039Y-91358244D01*
X152662256Y-91539793D01*
X153135667Y-91540206D01*
X153573200Y-91359421D01*
X153908244Y-91024961D01*
X154089793Y-90587744D01*
X154090001Y-90348796D01*
X154112663Y-90371497D01*
X154363567Y-90475681D01*
X154635241Y-90475918D01*
X154886327Y-90372172D01*
X155078597Y-90180237D01*
X155182781Y-89929333D01*
X155183018Y-89657659D01*
X155079272Y-89406573D01*
X155022867Y-89350070D01*
X155078597Y-89294437D01*
X155182781Y-89043533D01*
X155183018Y-88771859D01*
X155079272Y-88520773D01*
X154887337Y-88328503D01*
X154636433Y-88224319D01*
X154364759Y-88224082D01*
X154113673Y-88327828D01*
X154089999Y-88351461D01*
X154090206Y-88114333D01*
X153909421Y-87676800D01*
X153574961Y-87341756D01*
X153351133Y-87248814D01*
X153629738Y-87133412D01*
X153715078Y-86897009D01*
X152900000Y-86081931D01*
X152084922Y-86897009D01*
X152170262Y-87133412D01*
X152479567Y-87236138D01*
X152226800Y-87340579D01*
X151891756Y-87675039D01*
X151710207Y-88112256D01*
X151709794Y-88585667D01*
X148415000Y-88585667D01*
X148415000Y-87286157D01*
X149859837Y-87286157D01*
X150002642Y-87631772D01*
X150266837Y-87896429D01*
X150612202Y-88039837D01*
X150986157Y-88040163D01*
X151331772Y-87897358D01*
X151596429Y-87633163D01*
X151739837Y-87287798D01*
X151740163Y-86913843D01*
X151597358Y-86568228D01*
X151333163Y-86303571D01*
X150987798Y-86160163D01*
X150613843Y-86159837D01*
X150268228Y-86302642D01*
X150003571Y-86566837D01*
X149860163Y-86912202D01*
X149859837Y-87286157D01*
X148415000Y-87286157D01*
X148415000Y-85198824D01*
X149333107Y-85198824D01*
X149528826Y-85528633D01*
X150401913Y-85860670D01*
X151335605Y-85833317D01*
X151443795Y-85788503D01*
X151476487Y-86241506D01*
X151616588Y-86579738D01*
X151852991Y-86665078D01*
X152668069Y-85850000D01*
X153131931Y-85850000D01*
X153947009Y-86665078D01*
X154183412Y-86579738D01*
X154364977Y-86033050D01*
X154323513Y-85458494D01*
X154183412Y-85120262D01*
X153947009Y-85034922D01*
X153131931Y-85850000D01*
X152668069Y-85850000D01*
X152653927Y-85835858D01*
X152885858Y-85603927D01*
X152900000Y-85618069D01*
X153715078Y-84802991D01*
X153629738Y-84566588D01*
X153083050Y-84385023D01*
X152972452Y-84393005D01*
X153160670Y-83898087D01*
X153133317Y-82964395D01*
X152843772Y-82265373D01*
X153659768Y-82265373D01*
X153863341Y-82758057D01*
X154239960Y-83135334D01*
X154732288Y-83339767D01*
X155265373Y-83340232D01*
X155758057Y-83136659D01*
X156135334Y-82760040D01*
X156339767Y-82267712D01*
X156340232Y-81734627D01*
X156136659Y-81241943D01*
X155760040Y-80864666D01*
X155267712Y-80660233D01*
X154734627Y-80659768D01*
X154241943Y-80863341D01*
X153864666Y-81239960D01*
X153660233Y-81732288D01*
X153659768Y-82265373D01*
X152843772Y-82265373D01*
X152828633Y-82228826D01*
X152498824Y-82033107D01*
X151031931Y-83500000D01*
X151046074Y-83514143D01*
X150814143Y-83746074D01*
X150800000Y-83731931D01*
X149333107Y-85198824D01*
X148415000Y-85198824D01*
X148415000Y-83101913D01*
X148439330Y-83101913D01*
X148466683Y-84035605D01*
X148771367Y-84771174D01*
X149101176Y-84966893D01*
X150568069Y-83500000D01*
X149101176Y-82033107D01*
X148771367Y-82228826D01*
X148439330Y-83101913D01*
X148415000Y-83101913D01*
X148415000Y-81801176D01*
X149333107Y-81801176D01*
X150800000Y-83268069D01*
X152266893Y-81801176D01*
X152071174Y-81471367D01*
X151198087Y-81139330D01*
X150264395Y-81166683D01*
X149528826Y-81471367D01*
X149333107Y-81801176D01*
X148415000Y-81801176D01*
X148415000Y-81040874D01*
X148467041Y-80779242D01*
X148592092Y-80592091D01*
X148779241Y-80467042D01*
X149040874Y-80415000D01*
X159323495Y-80415000D01*
X159316814Y-80416329D01*
X159316814Y-80416329D01*
G37*
X159316814Y-80416329D02*
X159076741Y-80576741D01*
X158916329Y-80816814D01*
X158860000Y-81100000D01*
X158916329Y-81383186D01*
X159076741Y-81623259D01*
X159316814Y-81783671D01*
X159600000Y-81840000D01*
X163800000Y-81840000D01*
X164083186Y-81783671D01*
X164323259Y-81623259D01*
X164483671Y-81383186D01*
X164540000Y-81100000D01*
X164483671Y-80816814D01*
X164323259Y-80576741D01*
X164083186Y-80416329D01*
X164076505Y-80415000D01*
X167240841Y-80415000D01*
X167008926Y-80569960D01*
X166748019Y-80960436D01*
X166656400Y-81421034D01*
X166656400Y-81778966D01*
X166748019Y-82239564D01*
X167008926Y-82630040D01*
X167399402Y-82890947D01*
X167860000Y-82982566D01*
X168320598Y-82890947D01*
X168711074Y-82630040D01*
X168971981Y-82239564D01*
X169063600Y-81778966D01*
X169063600Y-81421034D01*
X168971981Y-80960436D01*
X168711074Y-80569960D01*
X168479159Y-80415000D01*
X169780841Y-80415000D01*
X169548926Y-80569960D01*
X169288019Y-80960436D01*
X169196400Y-81421034D01*
X169196400Y-81778966D01*
X169288019Y-82239564D01*
X169548926Y-82630040D01*
X169939402Y-82890947D01*
X170400000Y-82982566D01*
X170860598Y-82890947D01*
X171251074Y-82630040D01*
X171511981Y-82239564D01*
X171603600Y-81778966D01*
X171603600Y-81421034D01*
X171511981Y-80960436D01*
X171251074Y-80569960D01*
X171019159Y-80415000D01*
X171780372Y-80415000D01*
X171757052Y-80449130D01*
X171729740Y-80584000D01*
X171729740Y-82616000D01*
X171753448Y-82741996D01*
X171827911Y-82857716D01*
X171941530Y-82935348D01*
X172076400Y-82962660D01*
X173803600Y-82962660D01*
X173929596Y-82938952D01*
X174045316Y-82864489D01*
X174122948Y-82750870D01*
X174150260Y-82616000D01*
X174150260Y-80584000D01*
X174126552Y-80458004D01*
X174098880Y-80415000D01*
X177744961Y-80415000D01*
X177518123Y-80641442D01*
X177260294Y-81262363D01*
X177259707Y-81934687D01*
X177308049Y-82051683D01*
X177237216Y-81980850D01*
X177127563Y-82090503D01*
X176980773Y-81802250D01*
X176252609Y-81537023D01*
X175478376Y-81570643D01*
X174919227Y-81802250D01*
X174772436Y-82090505D01*
X175950000Y-83268069D01*
X175964143Y-83253927D01*
X176196074Y-83485858D01*
X176181931Y-83500000D01*
X176196074Y-83514143D01*
X175964143Y-83746074D01*
X175950000Y-83731931D01*
X175935858Y-83746074D01*
X175703927Y-83514143D01*
X175718069Y-83500000D01*
X174540505Y-82322436D01*
X174252250Y-82469227D01*
X173987023Y-83197391D01*
X174020643Y-83971624D01*
X174252250Y-84530773D01*
X174540503Y-84677563D01*
X174430850Y-84787216D01*
X174438952Y-84795318D01*
X174321403Y-84912663D01*
X174217219Y-85163567D01*
X174216982Y-85435241D01*
X174310000Y-85660363D01*
X174310000Y-86863460D01*
X174219723Y-86773025D01*
X173947841Y-86660129D01*
X173653451Y-86659872D01*
X173381372Y-86772293D01*
X173243425Y-86910000D01*
X168556459Y-86910000D01*
X168419723Y-86773025D01*
X168147841Y-86660129D01*
X167853451Y-86659872D01*
X167740000Y-86706749D01*
X167740000Y-85425867D01*
X167778597Y-85387337D01*
X167882781Y-85136433D01*
X167883018Y-84864759D01*
X167779272Y-84613673D01*
X167587337Y-84421403D01*
X167336433Y-84317219D01*
X167064759Y-84316982D01*
X166813673Y-84420728D01*
X166621403Y-84612663D01*
X166517219Y-84863567D01*
X166516982Y-85135241D01*
X166620728Y-85386327D01*
X166660000Y-85425668D01*
X166660000Y-87999998D01*
X166701105Y-88206647D01*
X166818162Y-88381836D01*
X167875261Y-89438934D01*
X167875263Y-89438937D01*
X167917030Y-89480703D01*
X167916982Y-89535239D01*
X168020728Y-89786325D01*
X168212663Y-89978595D01*
X168463567Y-90082779D01*
X168735241Y-90083016D01*
X168986327Y-89979270D01*
X169178597Y-89787335D01*
X169282781Y-89536431D01*
X169283018Y-89264757D01*
X169179272Y-89013671D01*
X168987337Y-88821401D01*
X168736433Y-88717217D01*
X168680846Y-88717169D01*
X168638939Y-88675261D01*
X168638936Y-88675259D01*
X168103768Y-88140091D01*
X168146549Y-88140128D01*
X168418628Y-88027707D01*
X168556575Y-87890000D01*
X173243541Y-87890000D01*
X173380277Y-88026975D01*
X173652159Y-88139871D01*
X173946549Y-88140128D01*
X174218628Y-88027707D01*
X174310000Y-87936494D01*
X174310000Y-89940124D01*
X174217219Y-90163566D01*
X174216982Y-90435240D01*
X174320728Y-90686326D01*
X174512663Y-90878596D01*
X174763567Y-90982780D01*
X175035241Y-90983017D01*
X175286327Y-90879271D01*
X175478597Y-90687336D01*
X175582781Y-90436432D01*
X175583018Y-90164758D01*
X175490000Y-89939636D01*
X175490000Y-85659875D01*
X175581695Y-85439048D01*
X175647391Y-85462977D01*
X176421624Y-85429357D01*
X176980773Y-85197750D01*
X177127563Y-84909497D01*
X177237216Y-85019150D01*
X177307367Y-84948999D01*
X177260294Y-85062363D01*
X177259707Y-85734687D01*
X177516452Y-86356057D01*
X177991442Y-86831877D01*
X178360000Y-86984916D01*
X178360000Y-87017766D01*
X178404911Y-87243549D01*
X178532807Y-87434959D01*
X182671958Y-91574110D01*
X182709053Y-91760598D01*
X182969960Y-92151074D01*
X183360436Y-92411981D01*
X183499615Y-92439666D01*
X183074365Y-92600396D01*
X182658848Y-92990659D01*
X182438766Y-93450818D01*
X182545790Y-93676000D01*
X183836000Y-93676000D01*
X183836000Y-93656000D01*
X184164000Y-93656000D01*
X184164000Y-93676000D01*
X184184000Y-93676000D01*
X184184000Y-94004000D01*
X184164000Y-94004000D01*
X184164000Y-94024000D01*
X183836000Y-94024000D01*
X183836000Y-94004000D01*
X182545790Y-94004000D01*
X182438766Y-94229182D01*
X182658848Y-94689341D01*
X183049086Y-95055862D01*
X182864666Y-95239960D01*
X182660233Y-95732288D01*
X182659768Y-96265373D01*
X182863341Y-96758057D01*
X183239960Y-97135334D01*
X183732288Y-97339767D01*
X184265373Y-97340232D01*
X184758057Y-97136659D01*
X185135334Y-96760040D01*
X185339767Y-96267712D01*
X185340232Y-95734627D01*
X185136659Y-95241943D01*
X184950908Y-95055867D01*
X185341152Y-94689341D01*
X185561234Y-94229182D01*
X185454211Y-94004002D01*
X185585000Y-94004002D01*
X185585000Y-96959126D01*
X185532958Y-97220759D01*
X185407909Y-97407908D01*
X185220758Y-97532959D01*
X184959126Y-97585000D01*
X165477499Y-97585000D01*
X165477499Y-95470464D01*
X166560041Y-96553006D01*
X166559872Y-96746549D01*
X166672293Y-97018628D01*
X166880277Y-97226975D01*
X167152159Y-97339871D01*
X167446549Y-97340128D01*
X167718628Y-97227707D01*
X167926975Y-97019723D01*
X168039871Y-96747841D01*
X168040128Y-96453451D01*
X167927707Y-96181372D01*
X167719723Y-95973025D01*
X167447841Y-95860129D01*
X167252924Y-95859959D01*
X159790000Y-88397036D01*
X159790000Y-87956459D01*
X159926975Y-87819723D01*
X160039871Y-87547841D01*
X160039872Y-87546549D01*
X160159872Y-87546549D01*
X160272293Y-87818628D01*
X160410000Y-87956575D01*
X160410000Y-88100000D01*
X160447299Y-88287515D01*
X160553518Y-88446482D01*
X166560041Y-94453005D01*
X166559872Y-94646549D01*
X166672293Y-94918628D01*
X166880277Y-95126975D01*
X167152159Y-95239871D01*
X167446549Y-95240128D01*
X167718628Y-95127707D01*
X167926975Y-94919723D01*
X168039871Y-94647841D01*
X168040128Y-94353451D01*
X167927707Y-94081372D01*
X167719723Y-93873025D01*
X167447841Y-93760129D01*
X167252923Y-93759959D01*
X164539513Y-91046549D01*
X165759874Y-91046549D01*
X165872295Y-91318628D01*
X166080279Y-91526975D01*
X166352161Y-91639871D01*
X166547079Y-91640041D01*
X167353519Y-92446482D01*
X167493235Y-92539837D01*
X167512487Y-92552701D01*
X167700002Y-92590000D01*
X175300000Y-92590000D01*
X175487515Y-92552701D01*
X175646482Y-92446482D01*
X177153005Y-90939959D01*
X177346549Y-90940128D01*
X177618628Y-90827707D01*
X177826975Y-90619723D01*
X177939871Y-90347841D01*
X177940128Y-90053451D01*
X177827707Y-89781372D01*
X177619723Y-89573025D01*
X177347841Y-89460129D01*
X177053451Y-89459872D01*
X176781372Y-89572293D01*
X176573025Y-89780277D01*
X176460129Y-90052159D01*
X176459959Y-90247077D01*
X175097036Y-91610000D01*
X167902967Y-91610000D01*
X167239961Y-90946995D01*
X167240130Y-90753451D01*
X167127709Y-90481372D01*
X166919725Y-90273025D01*
X166647843Y-90160129D01*
X166353453Y-90159872D01*
X166081374Y-90272293D01*
X165873027Y-90480277D01*
X165760131Y-90752159D01*
X165759874Y-91046549D01*
X164539513Y-91046549D01*
X161419738Y-87926774D01*
X161526975Y-87819723D01*
X161639871Y-87547841D01*
X161640128Y-87253451D01*
X161527707Y-86981372D01*
X161319723Y-86773025D01*
X161047841Y-86660129D01*
X160753451Y-86659872D01*
X160481372Y-86772293D01*
X160273025Y-86980277D01*
X160160129Y-87252159D01*
X160159872Y-87546549D01*
X160039872Y-87546549D01*
X160040128Y-87253451D01*
X159927707Y-86981372D01*
X159719723Y-86773025D01*
X159447841Y-86660129D01*
X159153451Y-86659872D01*
X158881372Y-86772293D01*
X158673025Y-86980277D01*
X158560129Y-87252159D01*
X158559872Y-87546549D01*
X158672293Y-87818628D01*
X158810000Y-87956575D01*
X158810000Y-88600000D01*
X158847299Y-88787515D01*
X158953518Y-88946482D01*
X164837035Y-94830000D01*
X153138168Y-94830000D01*
X153133317Y-94664395D01*
X152874674Y-94039978D01*
X153135667Y-94040206D01*
X153573200Y-93859421D01*
X153908244Y-93524961D01*
X154089793Y-93087744D01*
X154090206Y-92614333D01*
X153909421Y-92176800D01*
X153574961Y-91841756D01*
X153137744Y-91660207D01*
X152664333Y-91659794D01*
X152226800Y-91840579D01*
X151891756Y-92175039D01*
X151710207Y-92612256D01*
X151709839Y-93033951D01*
X151198087Y-92839330D01*
X150264395Y-92866683D01*
X149528826Y-93171367D01*
X149333107Y-93501176D01*
X150800000Y-94968069D01*
X150814143Y-94953927D01*
X151046074Y-95185858D01*
X151031931Y-95200000D01*
X151046074Y-95214143D01*
X150814143Y-95446074D01*
X150800000Y-95431931D01*
X149333107Y-96898824D01*
X149528826Y-97228633D01*
X150401913Y-97560670D01*
X151322502Y-97533701D01*
X151322502Y-97585000D01*
X149040874Y-97585000D01*
X148779241Y-97532958D01*
X148592092Y-97407909D01*
X148467041Y-97220758D01*
X148415000Y-96959126D01*
X148415000Y-94801913D01*
X148439330Y-94801913D01*
X148466683Y-95735605D01*
X148771367Y-96471174D01*
X149101176Y-96666893D01*
X150568069Y-95200000D01*
X149101176Y-93733107D01*
X148771367Y-93928826D01*
X148439330Y-94801913D01*
X148415000Y-94801913D01*
X148415000Y-91786157D01*
X149859837Y-91786157D01*
X150002642Y-92131772D01*
X150266837Y-92396429D01*
X150612202Y-92539837D01*
X150986157Y-92540163D01*
X151331772Y-92397358D01*
X151596429Y-92133163D01*
X151739837Y-91787798D01*
X151740163Y-91413843D01*
X151597358Y-91068228D01*
X151333163Y-90803571D01*
X150987798Y-90660163D01*
X150613843Y-90659837D01*
X150268228Y-90802642D01*
X150003571Y-91066837D01*
X149860163Y-91412202D01*
X149859837Y-91786157D01*
X148415000Y-91786157D01*
X148415000Y-88585667D01*
X151709794Y-88585667D01*
X151890579Y-89023200D01*
X152217085Y-89350277D01*
X151891756Y-89675039D01*
X151710207Y-90112256D01*
X151709794Y-90585667D01*
X151890579Y-91023200D01*
X152225039Y-91358244D01*
X152662256Y-91539793D01*
X153135667Y-91540206D01*
X153573200Y-91359421D01*
X153908244Y-91024961D01*
X154089793Y-90587744D01*
X154090001Y-90348796D01*
X154112663Y-90371497D01*
X154363567Y-90475681D01*
X154635241Y-90475918D01*
X154886327Y-90372172D01*
X155078597Y-90180237D01*
X155182781Y-89929333D01*
X155183018Y-89657659D01*
X155079272Y-89406573D01*
X155022867Y-89350070D01*
X155078597Y-89294437D01*
X155182781Y-89043533D01*
X155183018Y-88771859D01*
X155079272Y-88520773D01*
X154887337Y-88328503D01*
X154636433Y-88224319D01*
X154364759Y-88224082D01*
X154113673Y-88327828D01*
X154089999Y-88351461D01*
X154090206Y-88114333D01*
X153909421Y-87676800D01*
X153574961Y-87341756D01*
X153351133Y-87248814D01*
X153629738Y-87133412D01*
X153715078Y-86897009D01*
X152900000Y-86081931D01*
X152084922Y-86897009D01*
X152170262Y-87133412D01*
X152479567Y-87236138D01*
X152226800Y-87340579D01*
X151891756Y-87675039D01*
X151710207Y-88112256D01*
X151709794Y-88585667D01*
X148415000Y-88585667D01*
X148415000Y-87286157D01*
X149859837Y-87286157D01*
X150002642Y-87631772D01*
X150266837Y-87896429D01*
X150612202Y-88039837D01*
X150986157Y-88040163D01*
X151331772Y-87897358D01*
X151596429Y-87633163D01*
X151739837Y-87287798D01*
X151740163Y-86913843D01*
X151597358Y-86568228D01*
X151333163Y-86303571D01*
X150987798Y-86160163D01*
X150613843Y-86159837D01*
X150268228Y-86302642D01*
X150003571Y-86566837D01*
X149860163Y-86912202D01*
X149859837Y-87286157D01*
X148415000Y-87286157D01*
X148415000Y-85198824D01*
X149333107Y-85198824D01*
X149528826Y-85528633D01*
X150401913Y-85860670D01*
X151335605Y-85833317D01*
X151443795Y-85788503D01*
X151476487Y-86241506D01*
X151616588Y-86579738D01*
X151852991Y-86665078D01*
X152668069Y-85850000D01*
X153131931Y-85850000D01*
X153947009Y-86665078D01*
X154183412Y-86579738D01*
X154364977Y-86033050D01*
X154323513Y-85458494D01*
X154183412Y-85120262D01*
X153947009Y-85034922D01*
X153131931Y-85850000D01*
X152668069Y-85850000D01*
X152653927Y-85835858D01*
X152885858Y-85603927D01*
X152900000Y-85618069D01*
X153715078Y-84802991D01*
X153629738Y-84566588D01*
X153083050Y-84385023D01*
X152972452Y-84393005D01*
X153160670Y-83898087D01*
X153133317Y-82964395D01*
X152843772Y-82265373D01*
X153659768Y-82265373D01*
X153863341Y-82758057D01*
X154239960Y-83135334D01*
X154732288Y-83339767D01*
X155265373Y-83340232D01*
X155758057Y-83136659D01*
X156135334Y-82760040D01*
X156339767Y-82267712D01*
X156340232Y-81734627D01*
X156136659Y-81241943D01*
X155760040Y-80864666D01*
X155267712Y-80660233D01*
X154734627Y-80659768D01*
X154241943Y-80863341D01*
X153864666Y-81239960D01*
X153660233Y-81732288D01*
X153659768Y-82265373D01*
X152843772Y-82265373D01*
X152828633Y-82228826D01*
X152498824Y-82033107D01*
X151031931Y-83500000D01*
X151046074Y-83514143D01*
X150814143Y-83746074D01*
X150800000Y-83731931D01*
X149333107Y-85198824D01*
X148415000Y-85198824D01*
X148415000Y-83101913D01*
X148439330Y-83101913D01*
X148466683Y-84035605D01*
X148771367Y-84771174D01*
X149101176Y-84966893D01*
X150568069Y-83500000D01*
X149101176Y-82033107D01*
X148771367Y-82228826D01*
X148439330Y-83101913D01*
X148415000Y-83101913D01*
X148415000Y-81801176D01*
X149333107Y-81801176D01*
X150800000Y-83268069D01*
X152266893Y-81801176D01*
X152071174Y-81471367D01*
X151198087Y-81139330D01*
X150264395Y-81166683D01*
X149528826Y-81471367D01*
X149333107Y-81801176D01*
X148415000Y-81801176D01*
X148415000Y-81040874D01*
X148467041Y-80779242D01*
X148592092Y-80592091D01*
X148779241Y-80467042D01*
X149040874Y-80415000D01*
X159323495Y-80415000D01*
X159316814Y-80416329D01*
G36*
X183026800Y-80490579D02*
X182691756Y-80825039D01*
X182510207Y-81262256D01*
X182509794Y-81735667D01*
X182690579Y-82173200D01*
X183025039Y-82508244D01*
X183462256Y-82689793D01*
X183935667Y-82690206D01*
X184373200Y-82509421D01*
X184708244Y-82174961D01*
X184889793Y-81737744D01*
X184890206Y-81264333D01*
X184709421Y-80826800D01*
X184374961Y-80491756D01*
X184190113Y-80415000D01*
X184959126Y-80415000D01*
X185220758Y-80467041D01*
X185407909Y-80592092D01*
X185532958Y-80779241D01*
X185585000Y-81040874D01*
X185585000Y-93675998D01*
X185454211Y-93675998D01*
X185561234Y-93450818D01*
X185341152Y-92990659D01*
X184925635Y-92600396D01*
X184500385Y-92439666D01*
X184639564Y-92411981D01*
X185030040Y-92151074D01*
X185290947Y-91760598D01*
X185382566Y-91300000D01*
X185290947Y-90839402D01*
X185030040Y-90448926D01*
X184639564Y-90188019D01*
X184178966Y-90096400D01*
X183821034Y-90096400D01*
X183360436Y-90188019D01*
X183117178Y-90350558D01*
X180663020Y-87896400D01*
X182637340Y-87896400D01*
X182637340Y-89623600D01*
X182661048Y-89749596D01*
X182735511Y-89865316D01*
X182849130Y-89942948D01*
X182984000Y-89970260D01*
X185016000Y-89970260D01*
X185141996Y-89946552D01*
X185257716Y-89872089D01*
X185335348Y-89758470D01*
X185362660Y-89623600D01*
X185362660Y-87896400D01*
X185338952Y-87770404D01*
X185264489Y-87654684D01*
X185150870Y-87577052D01*
X185016000Y-87549740D01*
X182984000Y-87549740D01*
X182858004Y-87573448D01*
X182742284Y-87647911D01*
X182664652Y-87761530D01*
X182637340Y-87896400D01*
X180663020Y-87896400D01*
X179689604Y-86922984D01*
X179906057Y-86833548D01*
X180381877Y-86358558D01*
X180639706Y-85737637D01*
X180639707Y-85735667D01*
X182509794Y-85735667D01*
X182690579Y-86173200D01*
X183025039Y-86508244D01*
X183462256Y-86689793D01*
X183935667Y-86690206D01*
X184373200Y-86509421D01*
X184708244Y-86174961D01*
X184889793Y-85737744D01*
X184890206Y-85264333D01*
X184709421Y-84826800D01*
X184374961Y-84491756D01*
X183937744Y-84310207D01*
X183464333Y-84309794D01*
X183026800Y-84490579D01*
X182691756Y-84825039D01*
X182510207Y-85262256D01*
X182509794Y-85735667D01*
X180639707Y-85735667D01*
X180640293Y-85065313D01*
X180383548Y-84443943D01*
X179908558Y-83968123D01*
X179287637Y-83710294D01*
X178615313Y-83709707D01*
X177993943Y-83966452D01*
X177772941Y-84187068D01*
X177912977Y-83802609D01*
X177879357Y-83028376D01*
X177802343Y-82842447D01*
X177991442Y-83031877D01*
X178612363Y-83289706D01*
X179284687Y-83290293D01*
X179906057Y-83033548D01*
X180381877Y-82558558D01*
X180639706Y-81937637D01*
X180640293Y-81265313D01*
X180383548Y-80643943D01*
X180155004Y-80415000D01*
X183209715Y-80415000D01*
X183026800Y-80490579D01*
X183026800Y-80490579D01*
G37*
X183026800Y-80490579D02*
X182691756Y-80825039D01*
X182510207Y-81262256D01*
X182509794Y-81735667D01*
X182690579Y-82173200D01*
X183025039Y-82508244D01*
X183462256Y-82689793D01*
X183935667Y-82690206D01*
X184373200Y-82509421D01*
X184708244Y-82174961D01*
X184889793Y-81737744D01*
X184890206Y-81264333D01*
X184709421Y-80826800D01*
X184374961Y-80491756D01*
X184190113Y-80415000D01*
X184959126Y-80415000D01*
X185220758Y-80467041D01*
X185407909Y-80592092D01*
X185532958Y-80779241D01*
X185585000Y-81040874D01*
X185585000Y-93675998D01*
X185454211Y-93675998D01*
X185561234Y-93450818D01*
X185341152Y-92990659D01*
X184925635Y-92600396D01*
X184500385Y-92439666D01*
X184639564Y-92411981D01*
X185030040Y-92151074D01*
X185290947Y-91760598D01*
X185382566Y-91300000D01*
X185290947Y-90839402D01*
X185030040Y-90448926D01*
X184639564Y-90188019D01*
X184178966Y-90096400D01*
X183821034Y-90096400D01*
X183360436Y-90188019D01*
X183117178Y-90350558D01*
X180663020Y-87896400D01*
X182637340Y-87896400D01*
X182637340Y-89623600D01*
X182661048Y-89749596D01*
X182735511Y-89865316D01*
X182849130Y-89942948D01*
X182984000Y-89970260D01*
X185016000Y-89970260D01*
X185141996Y-89946552D01*
X185257716Y-89872089D01*
X185335348Y-89758470D01*
X185362660Y-89623600D01*
X185362660Y-87896400D01*
X185338952Y-87770404D01*
X185264489Y-87654684D01*
X185150870Y-87577052D01*
X185016000Y-87549740D01*
X182984000Y-87549740D01*
X182858004Y-87573448D01*
X182742284Y-87647911D01*
X182664652Y-87761530D01*
X182637340Y-87896400D01*
X180663020Y-87896400D01*
X179689604Y-86922984D01*
X179906057Y-86833548D01*
X180381877Y-86358558D01*
X180639706Y-85737637D01*
X180639707Y-85735667D01*
X182509794Y-85735667D01*
X182690579Y-86173200D01*
X183025039Y-86508244D01*
X183462256Y-86689793D01*
X183935667Y-86690206D01*
X184373200Y-86509421D01*
X184708244Y-86174961D01*
X184889793Y-85737744D01*
X184890206Y-85264333D01*
X184709421Y-84826800D01*
X184374961Y-84491756D01*
X183937744Y-84310207D01*
X183464333Y-84309794D01*
X183026800Y-84490579D01*
X182691756Y-84825039D01*
X182510207Y-85262256D01*
X182509794Y-85735667D01*
X180639707Y-85735667D01*
X180640293Y-85065313D01*
X180383548Y-84443943D01*
X179908558Y-83968123D01*
X179287637Y-83710294D01*
X178615313Y-83709707D01*
X177993943Y-83966452D01*
X177772941Y-84187068D01*
X177912977Y-83802609D01*
X177879357Y-83028376D01*
X177802343Y-82842447D01*
X177991442Y-83031877D01*
X178612363Y-83289706D01*
X179284687Y-83290293D01*
X179906057Y-83033548D01*
X180381877Y-82558558D01*
X180639706Y-81937637D01*
X180640293Y-81265313D01*
X180383548Y-80643943D01*
X180155004Y-80415000D01*
X183209715Y-80415000D01*
X183026800Y-80490579D01*
M02*
