M48
;DRILL file {KiCad 4.0.2+dfsg1-stable} date Fri 04 Aug 2017 18:39:22 BST
;FORMAT={-:-/ absolute / inch / decimal}
FMAT,2
INCH,TZ
T1C0.013
T2C0.016
T3C0.037
T4C0.040
T5C0.098
T6C0.047
T7C0.079
%
G90
G05
M72
T1
X6.0827Y-3.5003
X6.0827Y-3.5352
X6.2244Y-3.3031
X6.2835Y-3.1929
X6.2835Y-3.2559
X6.3661Y-3.7244
X6.3898Y-3.4252
X6.4488Y-3.1929
X6.5827Y-3.3465
X6.6378Y-3.5197
X6.8386Y-3.5118
X6.8858Y-3.3583
X6.8858Y-3.5551
X6.937Y-3.8031
X7.0709Y-3.6102
T2
X6.2717Y-3.4409
X6.3346Y-3.4409
X6.5551Y-3.5787
X6.5866Y-3.7205
X6.5866Y-3.8031
X6.6142Y-3.4409
X6.8425Y-3.4409
X6.9764Y-3.5512
T3
X6.0197Y-3.3799
X6.0197Y-3.4783
X6.0197Y-3.5571
X6.0197Y-3.6555
T4
X6.715Y-3.2126
X6.815Y-3.2126
X6.915Y-3.2126
X7.2441Y-3.4039
X7.2441Y-3.5039
X7.2441Y-3.6039
T5
X5.937Y-3.2874
X5.937Y-3.748
T6
X5.937Y-3.4291
X5.937Y-3.6063
T7
X7.2441Y-3.2283
X7.2441Y-3.7795
T0
M30
