G04 #@! TF.FileFunction,Legend,Bot*
%FSLAX46Y46*%
G04 Gerber Fmt 4.6, Leading zero omitted, Abs format (unit mm)*
G04 Created by KiCad (PCBNEW (2016-07-14 BZR 6980)-product) date Saturday, 16 July 2016 'AMt' 00:09:12*
%MOMM*%
%LPD*%
G01*
G04 APERTURE LIST*
%ADD10C,0.150000*%
%ADD11C,0.175000*%
%ADD12C,0.375000*%
%ADD13C,0.254000*%
%ADD14R,1.727200X2.032000*%
%ADD15O,1.727200X2.032000*%
%ADD16C,1.250000*%
%ADD17C,1.550000*%
%ADD18R,2.032000X1.727200*%
%ADD19O,2.032000X1.727200*%
G04 APERTURE END LIST*
D10*
D11*
X161733333Y-81950000D02*
X161633333Y-81983333D01*
X161600000Y-82016666D01*
X161566666Y-82083333D01*
X161566666Y-82183333D01*
X161600000Y-82250000D01*
X161633333Y-82283333D01*
X161700000Y-82316666D01*
X161966666Y-82316666D01*
X161966666Y-81616666D01*
X161733333Y-81616666D01*
X161666666Y-81650000D01*
X161633333Y-81683333D01*
X161600000Y-81750000D01*
X161600000Y-81816666D01*
X161633333Y-81883333D01*
X161666666Y-81916666D01*
X161733333Y-81950000D01*
X161966666Y-81950000D01*
X161166666Y-82316666D02*
X161233333Y-82283333D01*
X161266666Y-82250000D01*
X161300000Y-82183333D01*
X161300000Y-81983333D01*
X161266666Y-81916666D01*
X161233333Y-81883333D01*
X161166666Y-81850000D01*
X161066666Y-81850000D01*
X161000000Y-81883333D01*
X160966666Y-81916666D01*
X160933333Y-81983333D01*
X160933333Y-82183333D01*
X160966666Y-82250000D01*
X161000000Y-82283333D01*
X161066666Y-82316666D01*
X161166666Y-82316666D01*
X160333333Y-82316666D02*
X160333333Y-81950000D01*
X160366666Y-81883333D01*
X160433333Y-81850000D01*
X160566666Y-81850000D01*
X160633333Y-81883333D01*
X160333333Y-82283333D02*
X160400000Y-82316666D01*
X160566666Y-82316666D01*
X160633333Y-82283333D01*
X160666666Y-82216666D01*
X160666666Y-82150000D01*
X160633333Y-82083333D01*
X160566666Y-82050000D01*
X160400000Y-82050000D01*
X160333333Y-82016666D01*
X160000000Y-82316666D02*
X160000000Y-81850000D01*
X160000000Y-81983333D02*
X159966666Y-81916666D01*
X159933333Y-81883333D01*
X159866666Y-81850000D01*
X159800000Y-81850000D01*
X159266666Y-82316666D02*
X159266666Y-81616666D01*
X159266666Y-82283333D02*
X159333333Y-82316666D01*
X159466666Y-82316666D01*
X159533333Y-82283333D01*
X159566666Y-82250000D01*
X159600000Y-82183333D01*
X159600000Y-81983333D01*
X159566666Y-81916666D01*
X159533333Y-81883333D01*
X159466666Y-81850000D01*
X159333333Y-81850000D01*
X159266666Y-81883333D01*
X158433333Y-81850000D02*
X157933333Y-81850000D01*
X158233333Y-81550000D02*
X158433333Y-82450000D01*
X158000000Y-82150000D02*
X158500000Y-82150000D01*
X158200000Y-82450000D02*
X158000000Y-81550000D01*
D12*
X181899107Y-86482142D02*
X180756250Y-86482142D01*
X181327678Y-87053571D02*
X181327678Y-85910714D01*
X179327678Y-85553571D02*
X180041964Y-85553571D01*
X180113392Y-86267857D01*
X180041964Y-86196428D01*
X179899107Y-86125000D01*
X179541964Y-86125000D01*
X179399107Y-86196428D01*
X179327678Y-86267857D01*
X179256250Y-86410714D01*
X179256250Y-86767857D01*
X179327678Y-86910714D01*
X179399107Y-86982142D01*
X179541964Y-87053571D01*
X179899107Y-87053571D01*
X180041964Y-86982142D01*
X180113392Y-86910714D01*
X178827678Y-85553571D02*
X178327678Y-87053571D01*
X177827678Y-85553571D01*
X176184821Y-87053571D02*
X176184821Y-85553571D01*
X175827678Y-85553571D01*
X175613392Y-85625000D01*
X175470535Y-85767857D01*
X175399107Y-85910714D01*
X175327678Y-86196428D01*
X175327678Y-86410714D01*
X175399107Y-86696428D01*
X175470535Y-86839285D01*
X175613392Y-86982142D01*
X175827678Y-87053571D01*
X176184821Y-87053571D01*
X174684821Y-86267857D02*
X174184821Y-86267857D01*
X173970535Y-87053571D02*
X174684821Y-87053571D01*
X174684821Y-85553571D01*
X173970535Y-85553571D01*
X173541964Y-85553571D02*
X173041964Y-87053571D01*
X172541964Y-85553571D01*
X181041964Y-89678571D02*
X181541964Y-88964285D01*
X181899107Y-89678571D02*
X181899107Y-88178571D01*
X181327678Y-88178571D01*
X181184821Y-88250000D01*
X181113392Y-88321428D01*
X181041964Y-88464285D01*
X181041964Y-88678571D01*
X181113392Y-88821428D01*
X181184821Y-88892857D01*
X181327678Y-88964285D01*
X181899107Y-88964285D01*
X180541964Y-88178571D02*
X179541964Y-89678571D01*
X179541964Y-88178571D02*
X180541964Y-89678571D01*
X179184821Y-88178571D02*
X178327678Y-88178571D01*
X178756250Y-89678571D02*
X178756250Y-88178571D01*
X177970535Y-88178571D02*
X176970535Y-89678571D01*
X176970535Y-88178571D02*
X177970535Y-89678571D01*
X181113392Y-90875000D02*
X181256250Y-90803571D01*
X181470535Y-90803571D01*
X181684821Y-90875000D01*
X181827678Y-91017857D01*
X181899107Y-91160714D01*
X181970535Y-91446428D01*
X181970535Y-91660714D01*
X181899107Y-91946428D01*
X181827678Y-92089285D01*
X181684821Y-92232142D01*
X181470535Y-92303571D01*
X181327678Y-92303571D01*
X181113392Y-92232142D01*
X181041964Y-92160714D01*
X181041964Y-91660714D01*
X181327678Y-91660714D01*
X180399107Y-92303571D02*
X180399107Y-90803571D01*
X179541964Y-92303571D01*
X179541964Y-90803571D01*
X178827678Y-92303571D02*
X178827678Y-90803571D01*
X178470535Y-90803571D01*
X178256250Y-90875000D01*
X178113392Y-91017857D01*
X178041964Y-91160714D01*
X177970535Y-91446428D01*
X177970535Y-91660714D01*
X178041964Y-91946428D01*
X178113392Y-92089285D01*
X178256250Y-92232142D01*
X178470535Y-92303571D01*
X178827678Y-92303571D01*
D13*
G36*
X157373000Y-82473000D02*
X152519917Y-82473000D01*
X152519917Y-81227000D01*
X157373000Y-81227000D01*
X157373000Y-82473000D01*
X157373000Y-82473000D01*
G37*
X157373000Y-82473000D02*
X152519917Y-82473000D01*
X152519917Y-81227000D01*
X157373000Y-81227000D01*
X157373000Y-82473000D01*
%LPC*%
D14*
X175640000Y-81600000D03*
D15*
X173100000Y-81600000D03*
X170560000Y-81600000D03*
D16*
X153562540Y-86499100D03*
X153562540Y-91499100D03*
D17*
X150862540Y-85499100D03*
X150862540Y-92499100D03*
D18*
X184000000Y-86460000D03*
D19*
X184000000Y-89000000D03*
X184000000Y-91540000D03*
M02*
