G04 #@! TF.FileFunction,Copper,L2,Bot,Signal*
%FSLAX46Y46*%
G04 Gerber Fmt 4.6, Leading zero omitted, Abs format (unit mm)*
G04 Created by KiCad (PCBNEW (2016-07-14 BZR 6980)-product) date Sunday, 23 April 2017 'PMt' 23:45:08*
%MOMM*%
%LPD*%
G01*
G04 APERTURE LIST*
%ADD10C,0.150000*%
%ADD11C,0.175000*%
%ADD12R,1.727200X2.032000*%
%ADD13O,1.727200X2.032000*%
%ADD14C,1.250000*%
%ADD15C,1.550000*%
%ADD16R,2.032000X1.727200*%
%ADD17O,2.032000X1.727200*%
%ADD18C,0.685800*%
%ADD19C,0.800000*%
%ADD20C,0.400000*%
%ADD21C,0.800000*%
%ADD22C,0.300000*%
%ADD23C,0.500000*%
%ADD24C,0.180000*%
G04 APERTURE END LIST*
D10*
D11*
X162816666Y-95670833D02*
X162883333Y-95637500D01*
X163016666Y-95637500D01*
X163083333Y-95670833D01*
X163150000Y-95737500D01*
X163183333Y-95804166D01*
X163183333Y-95937500D01*
X163150000Y-96004166D01*
X163083333Y-96070833D01*
X163016666Y-96104166D01*
X162883333Y-96104166D01*
X162816666Y-96070833D01*
X162950000Y-95404166D02*
X163116666Y-95437500D01*
X163283333Y-95537500D01*
X163383333Y-95704166D01*
X163416666Y-95870833D01*
X163383333Y-96037500D01*
X163283333Y-96204166D01*
X163116666Y-96304166D01*
X162950000Y-96337500D01*
X162783333Y-96304166D01*
X162616666Y-96204166D01*
X162516666Y-96037500D01*
X162483333Y-95870833D01*
X162516666Y-95704166D01*
X162616666Y-95537500D01*
X162783333Y-95437500D01*
X162950000Y-95404166D01*
X161683333Y-95570833D02*
X161650000Y-95537500D01*
X161583333Y-95504166D01*
X161416666Y-95504166D01*
X161350000Y-95537500D01*
X161316666Y-95570833D01*
X161283333Y-95637500D01*
X161283333Y-95704166D01*
X161316666Y-95804166D01*
X161716666Y-96204166D01*
X161283333Y-96204166D01*
X160850000Y-95504166D02*
X160783333Y-95504166D01*
X160716666Y-95537500D01*
X160683333Y-95570833D01*
X160650000Y-95637500D01*
X160616666Y-95770833D01*
X160616666Y-95937500D01*
X160650000Y-96070833D01*
X160683333Y-96137500D01*
X160716666Y-96170833D01*
X160783333Y-96204166D01*
X160850000Y-96204166D01*
X160916666Y-96170833D01*
X160950000Y-96137500D01*
X160983333Y-96070833D01*
X161016666Y-95937500D01*
X161016666Y-95770833D01*
X160983333Y-95637500D01*
X160950000Y-95570833D01*
X160916666Y-95537500D01*
X160850000Y-95504166D01*
X159950000Y-96204166D02*
X160350000Y-96204166D01*
X160150000Y-96204166D02*
X160150000Y-95504166D01*
X160216666Y-95604166D01*
X160283333Y-95670833D01*
X160350000Y-95704166D01*
X159350000Y-95504166D02*
X159483333Y-95504166D01*
X159550000Y-95537500D01*
X159583333Y-95570833D01*
X159650000Y-95670833D01*
X159683333Y-95804166D01*
X159683333Y-96070833D01*
X159650000Y-96137500D01*
X159616666Y-96170833D01*
X159550000Y-96204166D01*
X159416666Y-96204166D01*
X159350000Y-96170833D01*
X159316666Y-96137500D01*
X159283333Y-96070833D01*
X159283333Y-95904166D01*
X159316666Y-95837500D01*
X159350000Y-95804166D01*
X159416666Y-95770833D01*
X159550000Y-95770833D01*
X159616666Y-95804166D01*
X159650000Y-95837500D01*
X159683333Y-95904166D01*
X158416666Y-96204166D02*
X158283333Y-96204166D01*
X158216666Y-96170833D01*
X158183333Y-96137500D01*
X158116666Y-96037500D01*
X158083333Y-95904166D01*
X158083333Y-95637500D01*
X158116666Y-95570833D01*
X158150000Y-95537500D01*
X158216666Y-95504166D01*
X158350000Y-95504166D01*
X158416666Y-95537500D01*
X158450000Y-95570833D01*
X158483333Y-95637500D01*
X158483333Y-95804166D01*
X158450000Y-95870833D01*
X158416666Y-95904166D01*
X158350000Y-95937500D01*
X158216666Y-95937500D01*
X158150000Y-95904166D01*
X158116666Y-95870833D01*
X158083333Y-95804166D01*
X157683333Y-95804166D02*
X157750000Y-95770833D01*
X157783333Y-95737500D01*
X157816666Y-95670833D01*
X157816666Y-95637500D01*
X157783333Y-95570833D01*
X157750000Y-95537500D01*
X157683333Y-95504166D01*
X157550000Y-95504166D01*
X157483333Y-95537500D01*
X157450000Y-95570833D01*
X157416666Y-95637500D01*
X157416666Y-95670833D01*
X157450000Y-95737500D01*
X157483333Y-95770833D01*
X157550000Y-95804166D01*
X157683333Y-95804166D01*
X157750000Y-95837500D01*
X157783333Y-95870833D01*
X157816666Y-95937500D01*
X157816666Y-96070833D01*
X157783333Y-96137500D01*
X157750000Y-96170833D01*
X157683333Y-96204166D01*
X157550000Y-96204166D01*
X157483333Y-96170833D01*
X157450000Y-96137500D01*
X157416666Y-96070833D01*
X157416666Y-95937500D01*
X157450000Y-95870833D01*
X157483333Y-95837500D01*
X157550000Y-95804166D01*
X156816666Y-95504166D02*
X156950000Y-95504166D01*
X157016666Y-95537500D01*
X157050000Y-95570833D01*
X157116666Y-95670833D01*
X157150000Y-95804166D01*
X157150000Y-96070833D01*
X157116666Y-96137500D01*
X157083333Y-96170833D01*
X157016666Y-96204166D01*
X156883333Y-96204166D01*
X156816666Y-96170833D01*
X156783333Y-96137500D01*
X156750000Y-96070833D01*
X156750000Y-95904166D01*
X156783333Y-95837500D01*
X156816666Y-95804166D01*
X156883333Y-95770833D01*
X157016666Y-95770833D01*
X157083333Y-95804166D01*
X157116666Y-95837500D01*
X157150000Y-95904166D01*
X156450000Y-95937500D02*
X155916666Y-95937500D01*
X155616666Y-96170833D02*
X155516666Y-96204166D01*
X155350000Y-96204166D01*
X155283333Y-96170833D01*
X155250000Y-96137500D01*
X155216666Y-96070833D01*
X155216666Y-96004166D01*
X155250000Y-95937500D01*
X155283333Y-95904166D01*
X155350000Y-95870833D01*
X155483333Y-95837500D01*
X155550000Y-95804166D01*
X155583333Y-95770833D01*
X155616666Y-95704166D01*
X155616666Y-95637500D01*
X155583333Y-95570833D01*
X155550000Y-95537500D01*
X155483333Y-95504166D01*
X155316666Y-95504166D01*
X155216666Y-95537500D01*
X155016666Y-95737500D02*
X154750000Y-95737500D01*
X154916666Y-95504166D02*
X154916666Y-96104166D01*
X154883333Y-96170833D01*
X154816666Y-96204166D01*
X154750000Y-96204166D01*
X154216666Y-95737500D02*
X154216666Y-96204166D01*
X154516666Y-95737500D02*
X154516666Y-96104166D01*
X154483333Y-96170833D01*
X154416666Y-96204166D01*
X154316666Y-96204166D01*
X154250000Y-96170833D01*
X154216666Y-96137500D01*
X153583333Y-96204166D02*
X153583333Y-95504166D01*
X153583333Y-96170833D02*
X153650000Y-96204166D01*
X153783333Y-96204166D01*
X153850000Y-96170833D01*
X153883333Y-96137500D01*
X153916666Y-96070833D01*
X153916666Y-95870833D01*
X153883333Y-95804166D01*
X153850000Y-95770833D01*
X153783333Y-95737500D01*
X153650000Y-95737500D01*
X153583333Y-95770833D01*
X153250000Y-96204166D02*
X153250000Y-95737500D01*
X153250000Y-95504166D02*
X153283333Y-95537500D01*
X153250000Y-95570833D01*
X153216666Y-95537500D01*
X153250000Y-95504166D01*
X153250000Y-95570833D01*
X152816666Y-96204166D02*
X152883333Y-96170833D01*
X152916666Y-96137500D01*
X152950000Y-96070833D01*
X152950000Y-95870833D01*
X152916666Y-95804166D01*
X152883333Y-95770833D01*
X152816666Y-95737500D01*
X152716666Y-95737500D01*
X152650000Y-95770833D01*
X152616666Y-95804166D01*
X152583333Y-95870833D01*
X152583333Y-96070833D01*
X152616666Y-96137500D01*
X152650000Y-96170833D01*
X152716666Y-96204166D01*
X152816666Y-96204166D01*
X164483333Y-97429166D02*
X164483333Y-96729166D01*
X164250000Y-97229166D01*
X164016666Y-96729166D01*
X164016666Y-97429166D01*
X163383333Y-97429166D02*
X163383333Y-97062500D01*
X163416666Y-96995833D01*
X163483333Y-96962500D01*
X163616666Y-96962500D01*
X163683333Y-96995833D01*
X163383333Y-97395833D02*
X163450000Y-97429166D01*
X163616666Y-97429166D01*
X163683333Y-97395833D01*
X163716666Y-97329166D01*
X163716666Y-97262500D01*
X163683333Y-97195833D01*
X163616666Y-97162500D01*
X163450000Y-97162500D01*
X163383333Y-97129166D01*
X163050000Y-96962500D02*
X163050000Y-97429166D01*
X163050000Y-97029166D02*
X163016666Y-96995833D01*
X162950000Y-96962500D01*
X162850000Y-96962500D01*
X162783333Y-96995833D01*
X162750000Y-97062500D01*
X162750000Y-97429166D01*
X162316666Y-97429166D02*
X162383333Y-97395833D01*
X162416666Y-97362500D01*
X162450000Y-97295833D01*
X162450000Y-97095833D01*
X162416666Y-97029166D01*
X162383333Y-96995833D01*
X162316666Y-96962500D01*
X162216666Y-96962500D01*
X162150000Y-96995833D01*
X162116666Y-97029166D01*
X162083333Y-97095833D01*
X162083333Y-97295833D01*
X162116666Y-97362500D01*
X162150000Y-97395833D01*
X162216666Y-97429166D01*
X162316666Y-97429166D01*
X161516666Y-97395833D02*
X161583333Y-97429166D01*
X161716666Y-97429166D01*
X161783333Y-97395833D01*
X161816666Y-97329166D01*
X161816666Y-97062500D01*
X161783333Y-96995833D01*
X161716666Y-96962500D01*
X161583333Y-96962500D01*
X161516666Y-96995833D01*
X161483333Y-97062500D01*
X161483333Y-97129166D01*
X161816666Y-97195833D01*
X161783333Y-96729166D02*
X161750000Y-96762500D01*
X161783333Y-96795833D01*
X161816666Y-96762500D01*
X161783333Y-96729166D01*
X161783333Y-96795833D01*
X161516666Y-96729166D02*
X161483333Y-96762500D01*
X161516666Y-96795833D01*
X161550000Y-96762500D01*
X161516666Y-96729166D01*
X161516666Y-96795833D01*
X161083333Y-97429166D02*
X161150000Y-97395833D01*
X161183333Y-97329166D01*
X161183333Y-96729166D01*
X159750000Y-96962500D02*
X160283333Y-97162500D01*
X159750000Y-97362500D01*
X159050000Y-96762500D02*
X159116666Y-96729166D01*
X159216666Y-96729166D01*
X159316666Y-96762500D01*
X159383333Y-96829166D01*
X159416666Y-96895833D01*
X159450000Y-97029166D01*
X159450000Y-97129166D01*
X159416666Y-97262500D01*
X159383333Y-97329166D01*
X159316666Y-97395833D01*
X159216666Y-97429166D01*
X159150000Y-97429166D01*
X159050000Y-97395833D01*
X159016666Y-97362500D01*
X159016666Y-97129166D01*
X159150000Y-97129166D01*
X158616666Y-97429166D02*
X158683333Y-97395833D01*
X158716666Y-97362500D01*
X158750000Y-97295833D01*
X158750000Y-97095833D01*
X158716666Y-97029166D01*
X158683333Y-96995833D01*
X158616666Y-96962500D01*
X158516666Y-96962500D01*
X158450000Y-96995833D01*
X158416666Y-97029166D01*
X158383333Y-97095833D01*
X158383333Y-97295833D01*
X158416666Y-97362500D01*
X158450000Y-97395833D01*
X158516666Y-97429166D01*
X158616666Y-97429166D01*
X157783333Y-97429166D02*
X157783333Y-96729166D01*
X157783333Y-97395833D02*
X157850000Y-97429166D01*
X157983333Y-97429166D01*
X158050000Y-97395833D01*
X158083333Y-97362500D01*
X158116666Y-97295833D01*
X158116666Y-97095833D01*
X158083333Y-97029166D01*
X158050000Y-96995833D01*
X157983333Y-96962500D01*
X157850000Y-96962500D01*
X157783333Y-96995833D01*
X157516666Y-96962500D02*
X157150000Y-96962500D01*
X157516666Y-97429166D01*
X157150000Y-97429166D01*
X156883333Y-97429166D02*
X156883333Y-96962500D01*
X156883333Y-96729166D02*
X156916666Y-96762500D01*
X156883333Y-96795833D01*
X156850000Y-96762500D01*
X156883333Y-96729166D01*
X156883333Y-96795833D01*
X156450000Y-97429166D02*
X156516666Y-97395833D01*
X156550000Y-97329166D01*
X156550000Y-96729166D01*
X156183333Y-96962500D02*
X155650000Y-97162500D01*
X156183333Y-97362500D01*
X154883333Y-96729166D02*
X154483333Y-96729166D01*
X154683333Y-97429166D02*
X154683333Y-96729166D01*
X154250000Y-97429166D02*
X154250000Y-96962500D01*
X154250000Y-97095833D02*
X154216666Y-97029166D01*
X154183333Y-96995833D01*
X154116666Y-96962500D01*
X154050000Y-96962500D01*
X153516666Y-97429166D02*
X153516666Y-97062500D01*
X153550000Y-96995833D01*
X153616666Y-96962500D01*
X153750000Y-96962500D01*
X153816666Y-96995833D01*
X153516666Y-97395833D02*
X153583333Y-97429166D01*
X153750000Y-97429166D01*
X153816666Y-97395833D01*
X153850000Y-97329166D01*
X153850000Y-97262500D01*
X153816666Y-97195833D01*
X153750000Y-97162500D01*
X153583333Y-97162500D01*
X153516666Y-97129166D01*
X153183333Y-96962500D02*
X153183333Y-97662500D01*
X153183333Y-96995833D02*
X153116666Y-96962500D01*
X152983333Y-96962500D01*
X152916666Y-96995833D01*
X152883333Y-97029166D01*
X152850000Y-97095833D01*
X152850000Y-97295833D01*
X152883333Y-97362500D01*
X152916666Y-97395833D01*
X152983333Y-97429166D01*
X153116666Y-97429166D01*
X153183333Y-97395833D01*
X152550000Y-97429166D02*
X152550000Y-96962500D01*
X152550000Y-96729166D02*
X152583333Y-96762500D01*
X152550000Y-96795833D01*
X152516666Y-96762500D01*
X152550000Y-96729166D01*
X152550000Y-96795833D01*
X151950000Y-97395833D02*
X152016666Y-97429166D01*
X152150000Y-97429166D01*
X152216666Y-97395833D01*
X152250000Y-97329166D01*
X152250000Y-97062500D01*
X152216666Y-96995833D01*
X152150000Y-96962500D01*
X152016666Y-96962500D01*
X151950000Y-96995833D01*
X151916666Y-97062500D01*
X151916666Y-97129166D01*
X152250000Y-97195833D01*
X151616666Y-97429166D02*
X151616666Y-96962500D01*
X151616666Y-97095833D02*
X151583333Y-97029166D01*
X151550000Y-96995833D01*
X151483333Y-96962500D01*
X151416666Y-96962500D01*
D12*
X175640000Y-81600000D03*
D13*
X173100000Y-81600000D03*
X170560000Y-81600000D03*
D14*
X151962540Y-86499100D03*
X151962540Y-91499100D03*
D15*
X149262540Y-85499100D03*
X149262540Y-92499100D03*
D16*
X184000000Y-86460000D03*
D17*
X184000000Y-89000000D03*
X184000000Y-91540000D03*
D18*
X173700000Y-89200000D03*
X162300004Y-87000000D03*
X159600000Y-82700000D03*
X161700000Y-94600000D03*
X176200000Y-96600000D03*
X179600000Y-91700000D03*
X158100000Y-83900000D03*
X168000000Y-89200000D03*
X167200000Y-85000000D03*
X159600000Y-81100000D03*
X163800000Y-81100000D03*
D19*
X159300000Y-87400000D03*
X167300000Y-96600000D03*
X167300000Y-94500000D03*
X160900000Y-87400000D03*
D18*
X174900000Y-90299999D03*
X174900000Y-85300000D03*
D19*
X166500002Y-90900000D03*
X177200000Y-90200000D03*
X168000000Y-87400000D03*
X173800000Y-87400000D03*
D20*
X167200000Y-85000000D02*
X167200000Y-88400000D01*
X167200000Y-88400000D02*
X168000000Y-89200000D01*
D21*
X163800000Y-81100000D02*
X159600000Y-81100000D01*
D22*
X159300000Y-87965685D02*
X159300000Y-87400000D01*
X159300000Y-88600000D02*
X159300000Y-87965685D01*
X167300000Y-96600000D02*
X159300000Y-88600000D01*
X167300000Y-94500000D02*
X160900000Y-88100000D01*
X160900000Y-88100000D02*
X160900000Y-87400000D01*
D23*
X174900000Y-85300000D02*
X174900000Y-90299999D01*
D22*
X177200000Y-90200000D02*
X175300000Y-92100000D01*
X175300000Y-92100000D02*
X167700002Y-92100000D01*
X167700002Y-92100000D02*
X166500002Y-90900000D01*
X173800000Y-87400000D02*
X168000000Y-87400000D01*
D24*
G36*
X159316814Y-80416329D02*
X159076741Y-80576741D01*
X158916329Y-80816814D01*
X158860000Y-81100000D01*
X158916329Y-81383186D01*
X159076741Y-81623259D01*
X159316814Y-81783671D01*
X159600000Y-81840000D01*
X163800000Y-81840000D01*
X164083186Y-81783671D01*
X164323259Y-81623259D01*
X164483671Y-81383186D01*
X164540000Y-81100000D01*
X164483671Y-80816814D01*
X164323259Y-80576741D01*
X164083186Y-80416329D01*
X164076505Y-80415000D01*
X169940841Y-80415000D01*
X169708926Y-80569960D01*
X169448019Y-80960436D01*
X169356400Y-81421034D01*
X169356400Y-81778966D01*
X169448019Y-82239564D01*
X169708926Y-82630040D01*
X170099402Y-82890947D01*
X170560000Y-82982566D01*
X171020598Y-82890947D01*
X171411074Y-82630040D01*
X171671981Y-82239564D01*
X171763600Y-81778966D01*
X171763600Y-81421034D01*
X171671981Y-80960436D01*
X171411074Y-80569960D01*
X171179159Y-80415000D01*
X172480841Y-80415000D01*
X172248926Y-80569960D01*
X171988019Y-80960436D01*
X171896400Y-81421034D01*
X171896400Y-81778966D01*
X171988019Y-82239564D01*
X172248926Y-82630040D01*
X172639402Y-82890947D01*
X173100000Y-82982566D01*
X173560598Y-82890947D01*
X173951074Y-82630040D01*
X174211981Y-82239564D01*
X174303600Y-81778966D01*
X174303600Y-81421034D01*
X174211981Y-80960436D01*
X173951074Y-80569960D01*
X173719159Y-80415000D01*
X174480409Y-80415000D01*
X174456128Y-80451339D01*
X174429740Y-80584000D01*
X174429740Y-82616000D01*
X174456128Y-82748661D01*
X174531274Y-82861126D01*
X174643739Y-82936272D01*
X174776400Y-82962660D01*
X176503600Y-82962660D01*
X176636261Y-82936272D01*
X176748726Y-82861126D01*
X176823872Y-82748661D01*
X176850260Y-82616000D01*
X176850260Y-80584000D01*
X176823872Y-80451339D01*
X176799591Y-80415000D01*
X184959126Y-80415000D01*
X185220758Y-80467041D01*
X185407909Y-80592092D01*
X185532958Y-80779241D01*
X185585000Y-81040874D01*
X185585000Y-91375998D01*
X185454211Y-91375998D01*
X185561234Y-91150818D01*
X185341152Y-90690659D01*
X184925635Y-90300396D01*
X184500385Y-90139666D01*
X184639564Y-90111981D01*
X185030040Y-89851074D01*
X185290947Y-89460598D01*
X185382566Y-89000000D01*
X185290947Y-88539402D01*
X185030040Y-88148926D01*
X184639564Y-87888019D01*
X184178966Y-87796400D01*
X183821034Y-87796400D01*
X183360436Y-87888019D01*
X182969960Y-88148926D01*
X182709053Y-88539402D01*
X182617434Y-89000000D01*
X182709053Y-89460598D01*
X182969960Y-89851074D01*
X183360436Y-90111981D01*
X183499615Y-90139666D01*
X183074365Y-90300396D01*
X182658848Y-90690659D01*
X182438766Y-91150818D01*
X182545790Y-91376000D01*
X183836000Y-91376000D01*
X183836000Y-91356000D01*
X184164000Y-91356000D01*
X184164000Y-91376000D01*
X184184000Y-91376000D01*
X184184000Y-91704000D01*
X184164000Y-91704000D01*
X184164000Y-92851450D01*
X184392400Y-92981149D01*
X184925635Y-92779604D01*
X185341152Y-92389341D01*
X185561234Y-91929182D01*
X185454211Y-91704002D01*
X185585000Y-91704002D01*
X185585000Y-96959126D01*
X185532958Y-97220759D01*
X185407909Y-97407908D01*
X185220758Y-97532959D01*
X184959126Y-97585000D01*
X165077500Y-97585000D01*
X165077500Y-95070465D01*
X166560041Y-96553006D01*
X166559872Y-96746549D01*
X166672293Y-97018628D01*
X166880277Y-97226975D01*
X167152159Y-97339871D01*
X167446549Y-97340128D01*
X167718628Y-97227707D01*
X167926975Y-97019723D01*
X168039871Y-96747841D01*
X168040128Y-96453451D01*
X167927707Y-96181372D01*
X167719723Y-95973025D01*
X167447841Y-95860129D01*
X167252924Y-95859959D01*
X159790000Y-88397036D01*
X159790000Y-87956459D01*
X159926975Y-87819723D01*
X160039871Y-87547841D01*
X160039872Y-87546549D01*
X160159872Y-87546549D01*
X160272293Y-87818628D01*
X160410000Y-87956575D01*
X160410000Y-88100000D01*
X160447299Y-88287515D01*
X160553518Y-88446482D01*
X166560041Y-94453005D01*
X166559872Y-94646549D01*
X166672293Y-94918628D01*
X166880277Y-95126975D01*
X167152159Y-95239871D01*
X167446549Y-95240128D01*
X167718628Y-95127707D01*
X167926975Y-94919723D01*
X168039871Y-94647841D01*
X168040128Y-94353451D01*
X167927707Y-94081372D01*
X167719723Y-93873025D01*
X167447841Y-93760129D01*
X167252923Y-93759959D01*
X164539513Y-91046549D01*
X165759874Y-91046549D01*
X165872295Y-91318628D01*
X166080279Y-91526975D01*
X166352161Y-91639871D01*
X166547079Y-91640041D01*
X167353519Y-92446482D01*
X167512487Y-92552701D01*
X167700002Y-92590000D01*
X175300000Y-92590000D01*
X175487515Y-92552701D01*
X175646482Y-92446482D01*
X176163782Y-91929182D01*
X182438766Y-91929182D01*
X182658848Y-92389341D01*
X183074365Y-92779604D01*
X183607600Y-92981149D01*
X183836000Y-92851450D01*
X183836000Y-91704000D01*
X182545790Y-91704000D01*
X182438766Y-91929182D01*
X176163782Y-91929182D01*
X177153005Y-90939959D01*
X177346549Y-90940128D01*
X177618628Y-90827707D01*
X177826975Y-90619723D01*
X177939871Y-90347841D01*
X177940128Y-90053451D01*
X177827707Y-89781372D01*
X177619723Y-89573025D01*
X177347841Y-89460129D01*
X177053451Y-89459872D01*
X176781372Y-89572293D01*
X176573025Y-89780277D01*
X176460129Y-90052159D01*
X176459959Y-90247077D01*
X175097036Y-91610000D01*
X167902967Y-91610000D01*
X167239961Y-90946995D01*
X167240130Y-90753451D01*
X167127709Y-90481372D01*
X166919725Y-90273025D01*
X166647843Y-90160129D01*
X166353453Y-90159872D01*
X166081374Y-90272293D01*
X165873027Y-90480277D01*
X165760131Y-90752159D01*
X165759874Y-91046549D01*
X164539513Y-91046549D01*
X161419738Y-87926774D01*
X161526975Y-87819723D01*
X161639871Y-87547841D01*
X161640128Y-87253451D01*
X161527707Y-86981372D01*
X161319723Y-86773025D01*
X161047841Y-86660129D01*
X160753451Y-86659872D01*
X160481372Y-86772293D01*
X160273025Y-86980277D01*
X160160129Y-87252159D01*
X160159872Y-87546549D01*
X160039872Y-87546549D01*
X160040128Y-87253451D01*
X159927707Y-86981372D01*
X159719723Y-86773025D01*
X159447841Y-86660129D01*
X159153451Y-86659872D01*
X158881372Y-86772293D01*
X158673025Y-86980277D01*
X158560129Y-87252159D01*
X158559872Y-87546549D01*
X158672293Y-87818628D01*
X158810000Y-87956575D01*
X158810000Y-88600000D01*
X158847299Y-88787515D01*
X158953518Y-88946482D01*
X165006785Y-94999750D01*
X150922500Y-94999750D01*
X150922500Y-97585000D01*
X149040874Y-97585000D01*
X148779241Y-97532958D01*
X148592092Y-97407909D01*
X148467041Y-97220758D01*
X148415000Y-96959126D01*
X148415000Y-93578574D01*
X148501979Y-93491595D01*
X148578045Y-93720239D01*
X149097459Y-93889231D01*
X149642005Y-93846587D01*
X149947035Y-93720239D01*
X150023102Y-93491593D01*
X149262540Y-92731031D01*
X149248398Y-92745174D01*
X149016467Y-92513243D01*
X149030609Y-92499100D01*
X149494471Y-92499100D01*
X150255033Y-93259662D01*
X150483679Y-93183595D01*
X150652671Y-92664181D01*
X150630603Y-92382373D01*
X151311198Y-92382373D01*
X151368641Y-92595545D01*
X151833440Y-92739359D01*
X152317894Y-92694354D01*
X152556439Y-92595545D01*
X152613882Y-92382373D01*
X151962540Y-91731031D01*
X151311198Y-92382373D01*
X150630603Y-92382373D01*
X150610027Y-92119635D01*
X150483679Y-91814605D01*
X150255033Y-91738538D01*
X149494471Y-92499100D01*
X149030609Y-92499100D01*
X149016467Y-92484958D01*
X149248398Y-92253027D01*
X149262540Y-92267169D01*
X150023102Y-91506607D01*
X149977655Y-91370000D01*
X150722281Y-91370000D01*
X150767286Y-91854454D01*
X150866095Y-92092999D01*
X151079267Y-92150442D01*
X151730609Y-91499100D01*
X152194471Y-91499100D01*
X152845813Y-92150442D01*
X153058985Y-92092999D01*
X153202799Y-91628200D01*
X153157794Y-91143746D01*
X153058985Y-90905201D01*
X152845813Y-90847758D01*
X152194471Y-91499100D01*
X151730609Y-91499100D01*
X151079267Y-90847758D01*
X150866095Y-90905201D01*
X150722281Y-91370000D01*
X149977655Y-91370000D01*
X149947035Y-91277961D01*
X149427621Y-91108969D01*
X148883075Y-91151613D01*
X148578045Y-91277961D01*
X148501979Y-91506605D01*
X148415000Y-91419626D01*
X148415000Y-90615827D01*
X151311198Y-90615827D01*
X151962540Y-91267169D01*
X152613882Y-90615827D01*
X152556439Y-90402655D01*
X152091640Y-90258841D01*
X151607186Y-90303846D01*
X151368641Y-90402655D01*
X151311198Y-90615827D01*
X148415000Y-90615827D01*
X148415000Y-87382373D01*
X151311198Y-87382373D01*
X151368641Y-87595545D01*
X151833440Y-87739359D01*
X152317894Y-87694354D01*
X152556439Y-87595545D01*
X152613882Y-87382373D01*
X151962540Y-86731031D01*
X151311198Y-87382373D01*
X148415000Y-87382373D01*
X148415000Y-86578574D01*
X148501979Y-86491595D01*
X148578045Y-86720239D01*
X149097459Y-86889231D01*
X149642005Y-86846587D01*
X149947035Y-86720239D01*
X150023102Y-86491593D01*
X149901509Y-86370000D01*
X150722281Y-86370000D01*
X150767286Y-86854454D01*
X150866095Y-87092999D01*
X151079267Y-87150442D01*
X151730609Y-86499100D01*
X152194471Y-86499100D01*
X152845813Y-87150442D01*
X153058985Y-87092999D01*
X153202799Y-86628200D01*
X153157794Y-86143746D01*
X153058985Y-85905201D01*
X152845813Y-85847758D01*
X152194471Y-86499100D01*
X151730609Y-86499100D01*
X151079267Y-85847758D01*
X150866095Y-85905201D01*
X150722281Y-86370000D01*
X149901509Y-86370000D01*
X149262540Y-85731031D01*
X149248398Y-85745174D01*
X149016467Y-85513243D01*
X149030609Y-85499100D01*
X149494471Y-85499100D01*
X150255033Y-86259662D01*
X150483679Y-86183595D01*
X150652671Y-85664181D01*
X150648885Y-85615827D01*
X151311198Y-85615827D01*
X151962540Y-86267169D01*
X152613882Y-85615827D01*
X152556439Y-85402655D01*
X152091640Y-85258841D01*
X151607186Y-85303846D01*
X151368641Y-85402655D01*
X151311198Y-85615827D01*
X150648885Y-85615827D01*
X150611250Y-85135241D01*
X166516982Y-85135241D01*
X166620728Y-85386327D01*
X166660000Y-85425668D01*
X166660000Y-88400000D01*
X166701105Y-88606649D01*
X166818162Y-88781838D01*
X167317030Y-89280706D01*
X167316982Y-89335241D01*
X167420728Y-89586327D01*
X167612663Y-89778597D01*
X167863567Y-89882781D01*
X168135241Y-89883018D01*
X168386327Y-89779272D01*
X168578597Y-89587337D01*
X168682781Y-89336433D01*
X168683018Y-89064759D01*
X168579272Y-88813673D01*
X168387337Y-88621403D01*
X168136433Y-88517219D01*
X168080847Y-88517171D01*
X167740000Y-88176324D01*
X167740000Y-88093298D01*
X167852159Y-88139871D01*
X168146549Y-88140128D01*
X168418628Y-88027707D01*
X168556575Y-87890000D01*
X173243541Y-87890000D01*
X173380277Y-88026975D01*
X173652159Y-88139871D01*
X173946549Y-88140128D01*
X174218628Y-88027707D01*
X174310000Y-87936494D01*
X174310000Y-89940124D01*
X174217219Y-90163566D01*
X174216982Y-90435240D01*
X174320728Y-90686326D01*
X174512663Y-90878596D01*
X174763567Y-90982780D01*
X175035241Y-90983017D01*
X175286327Y-90879271D01*
X175478597Y-90687336D01*
X175582781Y-90436432D01*
X175583018Y-90164758D01*
X175490000Y-89939636D01*
X175490000Y-85659875D01*
X175516357Y-85596400D01*
X182637340Y-85596400D01*
X182637340Y-87323600D01*
X182663728Y-87456261D01*
X182738874Y-87568726D01*
X182851339Y-87643872D01*
X182984000Y-87670260D01*
X185016000Y-87670260D01*
X185148661Y-87643872D01*
X185261126Y-87568726D01*
X185336272Y-87456261D01*
X185362660Y-87323600D01*
X185362660Y-85596400D01*
X185336272Y-85463739D01*
X185261126Y-85351274D01*
X185148661Y-85276128D01*
X185016000Y-85249740D01*
X182984000Y-85249740D01*
X182851339Y-85276128D01*
X182738874Y-85351274D01*
X182663728Y-85463739D01*
X182637340Y-85596400D01*
X175516357Y-85596400D01*
X175582781Y-85436433D01*
X175583018Y-85164759D01*
X175479272Y-84913673D01*
X175287337Y-84721403D01*
X175036433Y-84617219D01*
X174764759Y-84616982D01*
X174513673Y-84720728D01*
X174321403Y-84912663D01*
X174217219Y-85163567D01*
X174216982Y-85435241D01*
X174310000Y-85660363D01*
X174310000Y-86863460D01*
X174219723Y-86773025D01*
X173947841Y-86660129D01*
X173653451Y-86659872D01*
X173381372Y-86772293D01*
X173243425Y-86910000D01*
X168556459Y-86910000D01*
X168419723Y-86773025D01*
X168147841Y-86660129D01*
X167853451Y-86659872D01*
X167740000Y-86706749D01*
X167740000Y-85425867D01*
X167778597Y-85387337D01*
X167882781Y-85136433D01*
X167883018Y-84864759D01*
X167779272Y-84613673D01*
X167587337Y-84421403D01*
X167336433Y-84317219D01*
X167064759Y-84316982D01*
X166813673Y-84420728D01*
X166621403Y-84612663D01*
X166517219Y-84863567D01*
X166516982Y-85135241D01*
X150611250Y-85135241D01*
X150610027Y-85119635D01*
X150483679Y-84814605D01*
X150255033Y-84738538D01*
X149494471Y-85499100D01*
X149030609Y-85499100D01*
X149016467Y-85484958D01*
X149248398Y-85253027D01*
X149262540Y-85267169D01*
X150023102Y-84506607D01*
X149947035Y-84277961D01*
X149427621Y-84108969D01*
X148883075Y-84151613D01*
X148578045Y-84277961D01*
X148501979Y-84506605D01*
X148415000Y-84419626D01*
X148415000Y-81040874D01*
X148467041Y-80779242D01*
X148592092Y-80592091D01*
X148779241Y-80467042D01*
X149040874Y-80415000D01*
X159323495Y-80415000D01*
X159316814Y-80416329D01*
X159316814Y-80416329D01*
G37*
X159316814Y-80416329D02*
X159076741Y-80576741D01*
X158916329Y-80816814D01*
X158860000Y-81100000D01*
X158916329Y-81383186D01*
X159076741Y-81623259D01*
X159316814Y-81783671D01*
X159600000Y-81840000D01*
X163800000Y-81840000D01*
X164083186Y-81783671D01*
X164323259Y-81623259D01*
X164483671Y-81383186D01*
X164540000Y-81100000D01*
X164483671Y-80816814D01*
X164323259Y-80576741D01*
X164083186Y-80416329D01*
X164076505Y-80415000D01*
X169940841Y-80415000D01*
X169708926Y-80569960D01*
X169448019Y-80960436D01*
X169356400Y-81421034D01*
X169356400Y-81778966D01*
X169448019Y-82239564D01*
X169708926Y-82630040D01*
X170099402Y-82890947D01*
X170560000Y-82982566D01*
X171020598Y-82890947D01*
X171411074Y-82630040D01*
X171671981Y-82239564D01*
X171763600Y-81778966D01*
X171763600Y-81421034D01*
X171671981Y-80960436D01*
X171411074Y-80569960D01*
X171179159Y-80415000D01*
X172480841Y-80415000D01*
X172248926Y-80569960D01*
X171988019Y-80960436D01*
X171896400Y-81421034D01*
X171896400Y-81778966D01*
X171988019Y-82239564D01*
X172248926Y-82630040D01*
X172639402Y-82890947D01*
X173100000Y-82982566D01*
X173560598Y-82890947D01*
X173951074Y-82630040D01*
X174211981Y-82239564D01*
X174303600Y-81778966D01*
X174303600Y-81421034D01*
X174211981Y-80960436D01*
X173951074Y-80569960D01*
X173719159Y-80415000D01*
X174480409Y-80415000D01*
X174456128Y-80451339D01*
X174429740Y-80584000D01*
X174429740Y-82616000D01*
X174456128Y-82748661D01*
X174531274Y-82861126D01*
X174643739Y-82936272D01*
X174776400Y-82962660D01*
X176503600Y-82962660D01*
X176636261Y-82936272D01*
X176748726Y-82861126D01*
X176823872Y-82748661D01*
X176850260Y-82616000D01*
X176850260Y-80584000D01*
X176823872Y-80451339D01*
X176799591Y-80415000D01*
X184959126Y-80415000D01*
X185220758Y-80467041D01*
X185407909Y-80592092D01*
X185532958Y-80779241D01*
X185585000Y-81040874D01*
X185585000Y-91375998D01*
X185454211Y-91375998D01*
X185561234Y-91150818D01*
X185341152Y-90690659D01*
X184925635Y-90300396D01*
X184500385Y-90139666D01*
X184639564Y-90111981D01*
X185030040Y-89851074D01*
X185290947Y-89460598D01*
X185382566Y-89000000D01*
X185290947Y-88539402D01*
X185030040Y-88148926D01*
X184639564Y-87888019D01*
X184178966Y-87796400D01*
X183821034Y-87796400D01*
X183360436Y-87888019D01*
X182969960Y-88148926D01*
X182709053Y-88539402D01*
X182617434Y-89000000D01*
X182709053Y-89460598D01*
X182969960Y-89851074D01*
X183360436Y-90111981D01*
X183499615Y-90139666D01*
X183074365Y-90300396D01*
X182658848Y-90690659D01*
X182438766Y-91150818D01*
X182545790Y-91376000D01*
X183836000Y-91376000D01*
X183836000Y-91356000D01*
X184164000Y-91356000D01*
X184164000Y-91376000D01*
X184184000Y-91376000D01*
X184184000Y-91704000D01*
X184164000Y-91704000D01*
X184164000Y-92851450D01*
X184392400Y-92981149D01*
X184925635Y-92779604D01*
X185341152Y-92389341D01*
X185561234Y-91929182D01*
X185454211Y-91704002D01*
X185585000Y-91704002D01*
X185585000Y-96959126D01*
X185532958Y-97220759D01*
X185407909Y-97407908D01*
X185220758Y-97532959D01*
X184959126Y-97585000D01*
X165077500Y-97585000D01*
X165077500Y-95070465D01*
X166560041Y-96553006D01*
X166559872Y-96746549D01*
X166672293Y-97018628D01*
X166880277Y-97226975D01*
X167152159Y-97339871D01*
X167446549Y-97340128D01*
X167718628Y-97227707D01*
X167926975Y-97019723D01*
X168039871Y-96747841D01*
X168040128Y-96453451D01*
X167927707Y-96181372D01*
X167719723Y-95973025D01*
X167447841Y-95860129D01*
X167252924Y-95859959D01*
X159790000Y-88397036D01*
X159790000Y-87956459D01*
X159926975Y-87819723D01*
X160039871Y-87547841D01*
X160039872Y-87546549D01*
X160159872Y-87546549D01*
X160272293Y-87818628D01*
X160410000Y-87956575D01*
X160410000Y-88100000D01*
X160447299Y-88287515D01*
X160553518Y-88446482D01*
X166560041Y-94453005D01*
X166559872Y-94646549D01*
X166672293Y-94918628D01*
X166880277Y-95126975D01*
X167152159Y-95239871D01*
X167446549Y-95240128D01*
X167718628Y-95127707D01*
X167926975Y-94919723D01*
X168039871Y-94647841D01*
X168040128Y-94353451D01*
X167927707Y-94081372D01*
X167719723Y-93873025D01*
X167447841Y-93760129D01*
X167252923Y-93759959D01*
X164539513Y-91046549D01*
X165759874Y-91046549D01*
X165872295Y-91318628D01*
X166080279Y-91526975D01*
X166352161Y-91639871D01*
X166547079Y-91640041D01*
X167353519Y-92446482D01*
X167512487Y-92552701D01*
X167700002Y-92590000D01*
X175300000Y-92590000D01*
X175487515Y-92552701D01*
X175646482Y-92446482D01*
X176163782Y-91929182D01*
X182438766Y-91929182D01*
X182658848Y-92389341D01*
X183074365Y-92779604D01*
X183607600Y-92981149D01*
X183836000Y-92851450D01*
X183836000Y-91704000D01*
X182545790Y-91704000D01*
X182438766Y-91929182D01*
X176163782Y-91929182D01*
X177153005Y-90939959D01*
X177346549Y-90940128D01*
X177618628Y-90827707D01*
X177826975Y-90619723D01*
X177939871Y-90347841D01*
X177940128Y-90053451D01*
X177827707Y-89781372D01*
X177619723Y-89573025D01*
X177347841Y-89460129D01*
X177053451Y-89459872D01*
X176781372Y-89572293D01*
X176573025Y-89780277D01*
X176460129Y-90052159D01*
X176459959Y-90247077D01*
X175097036Y-91610000D01*
X167902967Y-91610000D01*
X167239961Y-90946995D01*
X167240130Y-90753451D01*
X167127709Y-90481372D01*
X166919725Y-90273025D01*
X166647843Y-90160129D01*
X166353453Y-90159872D01*
X166081374Y-90272293D01*
X165873027Y-90480277D01*
X165760131Y-90752159D01*
X165759874Y-91046549D01*
X164539513Y-91046549D01*
X161419738Y-87926774D01*
X161526975Y-87819723D01*
X161639871Y-87547841D01*
X161640128Y-87253451D01*
X161527707Y-86981372D01*
X161319723Y-86773025D01*
X161047841Y-86660129D01*
X160753451Y-86659872D01*
X160481372Y-86772293D01*
X160273025Y-86980277D01*
X160160129Y-87252159D01*
X160159872Y-87546549D01*
X160039872Y-87546549D01*
X160040128Y-87253451D01*
X159927707Y-86981372D01*
X159719723Y-86773025D01*
X159447841Y-86660129D01*
X159153451Y-86659872D01*
X158881372Y-86772293D01*
X158673025Y-86980277D01*
X158560129Y-87252159D01*
X158559872Y-87546549D01*
X158672293Y-87818628D01*
X158810000Y-87956575D01*
X158810000Y-88600000D01*
X158847299Y-88787515D01*
X158953518Y-88946482D01*
X165006785Y-94999750D01*
X150922500Y-94999750D01*
X150922500Y-97585000D01*
X149040874Y-97585000D01*
X148779241Y-97532958D01*
X148592092Y-97407909D01*
X148467041Y-97220758D01*
X148415000Y-96959126D01*
X148415000Y-93578574D01*
X148501979Y-93491595D01*
X148578045Y-93720239D01*
X149097459Y-93889231D01*
X149642005Y-93846587D01*
X149947035Y-93720239D01*
X150023102Y-93491593D01*
X149262540Y-92731031D01*
X149248398Y-92745174D01*
X149016467Y-92513243D01*
X149030609Y-92499100D01*
X149494471Y-92499100D01*
X150255033Y-93259662D01*
X150483679Y-93183595D01*
X150652671Y-92664181D01*
X150630603Y-92382373D01*
X151311198Y-92382373D01*
X151368641Y-92595545D01*
X151833440Y-92739359D01*
X152317894Y-92694354D01*
X152556439Y-92595545D01*
X152613882Y-92382373D01*
X151962540Y-91731031D01*
X151311198Y-92382373D01*
X150630603Y-92382373D01*
X150610027Y-92119635D01*
X150483679Y-91814605D01*
X150255033Y-91738538D01*
X149494471Y-92499100D01*
X149030609Y-92499100D01*
X149016467Y-92484958D01*
X149248398Y-92253027D01*
X149262540Y-92267169D01*
X150023102Y-91506607D01*
X149977655Y-91370000D01*
X150722281Y-91370000D01*
X150767286Y-91854454D01*
X150866095Y-92092999D01*
X151079267Y-92150442D01*
X151730609Y-91499100D01*
X152194471Y-91499100D01*
X152845813Y-92150442D01*
X153058985Y-92092999D01*
X153202799Y-91628200D01*
X153157794Y-91143746D01*
X153058985Y-90905201D01*
X152845813Y-90847758D01*
X152194471Y-91499100D01*
X151730609Y-91499100D01*
X151079267Y-90847758D01*
X150866095Y-90905201D01*
X150722281Y-91370000D01*
X149977655Y-91370000D01*
X149947035Y-91277961D01*
X149427621Y-91108969D01*
X148883075Y-91151613D01*
X148578045Y-91277961D01*
X148501979Y-91506605D01*
X148415000Y-91419626D01*
X148415000Y-90615827D01*
X151311198Y-90615827D01*
X151962540Y-91267169D01*
X152613882Y-90615827D01*
X152556439Y-90402655D01*
X152091640Y-90258841D01*
X151607186Y-90303846D01*
X151368641Y-90402655D01*
X151311198Y-90615827D01*
X148415000Y-90615827D01*
X148415000Y-87382373D01*
X151311198Y-87382373D01*
X151368641Y-87595545D01*
X151833440Y-87739359D01*
X152317894Y-87694354D01*
X152556439Y-87595545D01*
X152613882Y-87382373D01*
X151962540Y-86731031D01*
X151311198Y-87382373D01*
X148415000Y-87382373D01*
X148415000Y-86578574D01*
X148501979Y-86491595D01*
X148578045Y-86720239D01*
X149097459Y-86889231D01*
X149642005Y-86846587D01*
X149947035Y-86720239D01*
X150023102Y-86491593D01*
X149901509Y-86370000D01*
X150722281Y-86370000D01*
X150767286Y-86854454D01*
X150866095Y-87092999D01*
X151079267Y-87150442D01*
X151730609Y-86499100D01*
X152194471Y-86499100D01*
X152845813Y-87150442D01*
X153058985Y-87092999D01*
X153202799Y-86628200D01*
X153157794Y-86143746D01*
X153058985Y-85905201D01*
X152845813Y-85847758D01*
X152194471Y-86499100D01*
X151730609Y-86499100D01*
X151079267Y-85847758D01*
X150866095Y-85905201D01*
X150722281Y-86370000D01*
X149901509Y-86370000D01*
X149262540Y-85731031D01*
X149248398Y-85745174D01*
X149016467Y-85513243D01*
X149030609Y-85499100D01*
X149494471Y-85499100D01*
X150255033Y-86259662D01*
X150483679Y-86183595D01*
X150652671Y-85664181D01*
X150648885Y-85615827D01*
X151311198Y-85615827D01*
X151962540Y-86267169D01*
X152613882Y-85615827D01*
X152556439Y-85402655D01*
X152091640Y-85258841D01*
X151607186Y-85303846D01*
X151368641Y-85402655D01*
X151311198Y-85615827D01*
X150648885Y-85615827D01*
X150611250Y-85135241D01*
X166516982Y-85135241D01*
X166620728Y-85386327D01*
X166660000Y-85425668D01*
X166660000Y-88400000D01*
X166701105Y-88606649D01*
X166818162Y-88781838D01*
X167317030Y-89280706D01*
X167316982Y-89335241D01*
X167420728Y-89586327D01*
X167612663Y-89778597D01*
X167863567Y-89882781D01*
X168135241Y-89883018D01*
X168386327Y-89779272D01*
X168578597Y-89587337D01*
X168682781Y-89336433D01*
X168683018Y-89064759D01*
X168579272Y-88813673D01*
X168387337Y-88621403D01*
X168136433Y-88517219D01*
X168080847Y-88517171D01*
X167740000Y-88176324D01*
X167740000Y-88093298D01*
X167852159Y-88139871D01*
X168146549Y-88140128D01*
X168418628Y-88027707D01*
X168556575Y-87890000D01*
X173243541Y-87890000D01*
X173380277Y-88026975D01*
X173652159Y-88139871D01*
X173946549Y-88140128D01*
X174218628Y-88027707D01*
X174310000Y-87936494D01*
X174310000Y-89940124D01*
X174217219Y-90163566D01*
X174216982Y-90435240D01*
X174320728Y-90686326D01*
X174512663Y-90878596D01*
X174763567Y-90982780D01*
X175035241Y-90983017D01*
X175286327Y-90879271D01*
X175478597Y-90687336D01*
X175582781Y-90436432D01*
X175583018Y-90164758D01*
X175490000Y-89939636D01*
X175490000Y-85659875D01*
X175516357Y-85596400D01*
X182637340Y-85596400D01*
X182637340Y-87323600D01*
X182663728Y-87456261D01*
X182738874Y-87568726D01*
X182851339Y-87643872D01*
X182984000Y-87670260D01*
X185016000Y-87670260D01*
X185148661Y-87643872D01*
X185261126Y-87568726D01*
X185336272Y-87456261D01*
X185362660Y-87323600D01*
X185362660Y-85596400D01*
X185336272Y-85463739D01*
X185261126Y-85351274D01*
X185148661Y-85276128D01*
X185016000Y-85249740D01*
X182984000Y-85249740D01*
X182851339Y-85276128D01*
X182738874Y-85351274D01*
X182663728Y-85463739D01*
X182637340Y-85596400D01*
X175516357Y-85596400D01*
X175582781Y-85436433D01*
X175583018Y-85164759D01*
X175479272Y-84913673D01*
X175287337Y-84721403D01*
X175036433Y-84617219D01*
X174764759Y-84616982D01*
X174513673Y-84720728D01*
X174321403Y-84912663D01*
X174217219Y-85163567D01*
X174216982Y-85435241D01*
X174310000Y-85660363D01*
X174310000Y-86863460D01*
X174219723Y-86773025D01*
X173947841Y-86660129D01*
X173653451Y-86659872D01*
X173381372Y-86772293D01*
X173243425Y-86910000D01*
X168556459Y-86910000D01*
X168419723Y-86773025D01*
X168147841Y-86660129D01*
X167853451Y-86659872D01*
X167740000Y-86706749D01*
X167740000Y-85425867D01*
X167778597Y-85387337D01*
X167882781Y-85136433D01*
X167883018Y-84864759D01*
X167779272Y-84613673D01*
X167587337Y-84421403D01*
X167336433Y-84317219D01*
X167064759Y-84316982D01*
X166813673Y-84420728D01*
X166621403Y-84612663D01*
X166517219Y-84863567D01*
X166516982Y-85135241D01*
X150611250Y-85135241D01*
X150610027Y-85119635D01*
X150483679Y-84814605D01*
X150255033Y-84738538D01*
X149494471Y-85499100D01*
X149030609Y-85499100D01*
X149016467Y-85484958D01*
X149248398Y-85253027D01*
X149262540Y-85267169D01*
X150023102Y-84506607D01*
X149947035Y-84277961D01*
X149427621Y-84108969D01*
X148883075Y-84151613D01*
X148578045Y-84277961D01*
X148501979Y-84506605D01*
X148415000Y-84419626D01*
X148415000Y-81040874D01*
X148467041Y-80779242D01*
X148592092Y-80592091D01*
X148779241Y-80467042D01*
X149040874Y-80415000D01*
X159323495Y-80415000D01*
X159316814Y-80416329D01*
M02*
